<svg width="55" height="32" viewBox="0 0 55 32" fill="none" xmlns="http://www.w3.org/2000/svg">
<path d="M52.5609 27.9043C50.1581 27.9043 49.0932 26.9759 47.5915 25.6653C45.9259 24.2455 43.8508 22.4434 39.9463 22.4434C36.0145 22.4434 33.9666 24.2455 32.301 25.6653C30.7993 26.9759 29.7071 27.9043 27.3044 27.9043C24.9289 27.9043 23.8367 26.9759 22.3349 25.6653C20.6694 24.2455 18.5943 22.4434 14.6898 22.4434C10.7579 22.4434 8.6828 24.2455 7.01724 25.6653C5.5155 26.9759 4.45061 27.9043 2.04783 27.9043C0.928348 27.9043 0 28.8326 0 29.9521C0 31.0989 0.928348 31.9999 2.04783 31.9999C5.97965 31.9999 8.02745 30.2251 9.69301 28.778C11.1948 27.4674 12.287 26.539 14.6898 26.539C17.0925 26.539 18.1574 27.4674 19.6592 28.778C21.3247 30.2251 23.3998 31.9999 27.3044 31.9999C31.2362 31.9999 33.3113 30.2251 34.9769 28.778C36.4786 27.4674 37.5435 26.539 39.9463 26.539C42.3218 26.539 43.414 27.4674 44.9157 28.778C46.5813 30.2251 48.6564 31.9999 52.5609 31.9999C53.6804 31.9999 54.6087 31.0989 54.6087 29.9521C54.6087 28.8326 53.6804 27.9043 52.5609 27.9043Z" fill="white"/>
<path d="M52.5609 16.6557C50.1581 16.6557 49.0932 15.7001 47.5915 14.4168C45.9259 12.9697 43.8508 11.1949 39.9463 11.1949C36.0145 11.1949 33.9666 12.9697 32.301 14.4168C30.7993 15.7001 29.7071 16.6557 27.3044 16.6557C24.9289 16.6557 23.8367 15.7001 22.3349 14.4168C20.6694 12.9697 18.5943 11.1949 14.6898 11.1949C10.7579 11.1949 8.6828 12.9697 7.01724 14.4168C5.5155 15.7001 4.45061 16.6557 2.04783 16.6557C0.928348 16.6557 0 17.5568 0 18.7036C0 19.823 0.928348 20.7514 2.04783 20.7514C5.97965 20.7514 8.02745 18.9493 9.69301 17.5022C11.1948 16.2189 12.287 15.2905 14.6898 15.2905C17.0925 15.2905 18.1574 16.2189 19.6592 17.5022C21.3247 18.9493 23.3998 20.7514 27.3044 20.7514C31.2362 20.7514 33.3113 18.9493 34.9769 17.5022C36.4786 16.2189 37.5435 15.2905 39.9463 15.2905C42.3218 15.2905 43.414 16.2189 44.9157 17.5022C46.5813 18.9493 48.6564 20.7514 52.5609 20.7514C53.6804 20.7514 54.6087 19.823 54.6087 18.7036C54.6087 17.5568 53.6804 16.6557 52.5609 16.6557Z" fill="white"/>
<path d="M2.04783 9.55653C5.97965 9.55653 8.02745 7.75444 9.69301 6.33461C11.1948 5.024 12.287 4.09565 14.6898 4.09565C17.0925 4.09565 18.1574 5.024 19.6592 6.33461C21.3247 7.75444 23.3998 9.55653 27.3044 9.55653C31.2362 9.55653 33.3113 7.75444 34.9769 6.33461C36.4786 5.024 37.5435 4.09565 39.9463 4.09565C42.3218 4.09565 43.414 5.024 44.9157 6.33461C46.5813 7.75444 48.6564 9.55653 52.5609 9.55653C53.6804 9.55653 54.6087 8.62818 54.6087 7.5087C54.6087 6.36192 53.6804 5.46087 52.5609 5.46087C50.1581 5.46087 49.0932 4.53252 47.5915 3.22192C45.9259 1.77478 43.8508 0 39.9463 0C36.0145 0 33.9666 1.77478 32.301 3.22192C30.7993 4.53252 29.7071 5.46087 27.3044 5.46087C24.9289 5.46087 23.8367 4.53252 22.3349 3.22192C20.6694 1.77478 18.5943 0 14.6898 0C10.7579 0 8.68281 1.77478 7.01724 3.22192C5.5155 4.53252 4.45061 5.46087 2.04783 5.46087C0.928348 5.46087 0 6.36192 0 7.5087C0 8.62818 0.928348 9.55653 2.04783 9.55653Z" fill="white"/>
</svg>
