<svg width="45" height="26" viewBox="0 0 45 26" fill="none" xmlns="http://www.w3.org/2000/svg">
<path d="M42.7057 22.6722C40.7534 22.6722 39.8882 21.9179 38.6681 20.853C37.3148 19.6994 35.6288 18.2352 32.4563 18.2352C29.2617 18.2352 27.5978 19.6994 26.2446 20.853C25.0244 21.9179 24.137 22.6722 22.1848 22.6722C20.2547 22.6722 19.3673 21.9179 18.1471 20.853C16.7939 19.6994 15.1078 18.2352 11.9354 18.2352C8.74082 18.2352 7.05478 19.6994 5.70151 20.853C4.48134 21.9179 3.61612 22.6722 1.66386 22.6722C0.754283 22.6722 0 23.4265 0 24.3361C0 25.2678 0.754283 25.9999 1.66386 25.9999C4.85847 25.9999 6.5223 24.5579 7.87557 23.3821C9.09573 22.3172 9.98316 21.563 11.9354 21.563C13.8877 21.563 14.7529 22.3172 15.9731 23.3821C17.3263 24.5579 19.0124 25.9999 22.1848 25.9999C25.3794 25.9999 27.0654 24.5579 28.4187 23.3821C29.6389 22.3172 30.5041 21.563 32.4563 21.563C34.3864 21.563 35.2738 22.3172 36.494 23.3821C37.8473 24.5579 39.5333 25.9999 42.7057 25.9999C43.6153 25.9999 44.3696 25.2678 44.3696 24.3361C44.3696 23.4265 43.6153 22.6722 42.7057 22.6722Z" fill="#141416"/>
<path d="M42.7057 13.5332C40.7534 13.5332 39.8882 12.7568 38.6681 11.7141C37.3148 10.5383 35.6288 9.09628 32.4563 9.09628C29.2617 9.09628 27.5978 10.5383 26.2446 11.7141C25.0244 12.7568 24.137 13.5332 22.1848 13.5332C20.2547 13.5332 19.3673 12.7568 18.1471 11.7141C16.7939 10.5383 15.1078 9.09628 11.9354 9.09628C8.74082 9.09628 7.05478 10.5383 5.70151 11.7141C4.48134 12.7568 3.61612 13.5332 1.66386 13.5332C0.754283 13.5332 0 14.2653 0 15.1971C0 16.1067 0.754283 16.861 1.66386 16.861C4.85847 16.861 6.5223 15.3968 7.87557 14.221C9.09573 13.1783 9.98316 12.424 11.9354 12.424C13.8877 12.424 14.7529 13.1783 15.9731 14.221C17.3263 15.3968 19.0124 16.861 22.1848 16.861C25.3794 16.861 27.0654 15.3968 28.4187 14.221C29.6389 13.1783 30.5041 12.424 32.4563 12.424C34.3864 12.424 35.2738 13.1783 36.494 14.221C37.8473 15.3968 39.5333 16.861 42.7057 16.861C43.6153 16.861 44.3696 16.1067 44.3696 15.1971C44.3696 14.2653 43.6153 13.5332 42.7057 13.5332Z" fill="#141416"/>
<path d="M1.66386 7.76468C4.85847 7.76468 6.5223 6.30048 7.87557 5.14687C9.09573 4.082 9.98316 3.32772 11.9354 3.32772C13.8877 3.32772 14.7529 4.082 15.9731 5.14687C17.3263 6.30048 19.0124 7.76468 22.1848 7.76468C25.3794 7.76468 27.0654 6.30048 28.4187 5.14687C29.6389 4.082 30.5041 3.32772 32.4563 3.32772C34.3864 3.32772 35.2738 4.082 36.494 5.14687C37.8473 6.30048 39.5333 7.76468 42.7057 7.76468C43.6153 7.76468 44.3696 7.01039 44.3696 6.10082C44.3696 5.16906 43.6153 4.43696 42.7057 4.43696C40.7534 4.43696 39.8882 3.68267 38.6681 2.61781C37.3148 1.44201 35.6288 0 32.4563 0C29.2617 0 27.5978 1.44201 26.2446 2.61781C25.0244 3.68267 24.137 4.43696 22.1848 4.43696C20.2547 4.43696 19.3673 3.68267 18.1471 2.61781C16.7939 1.44201 15.1078 0 11.9354 0C8.74081 0 7.05478 1.44201 5.7015 2.61781C4.48134 3.68267 3.61612 4.43696 1.66386 4.43696C0.754283 4.43696 0 5.16906 0 6.10082C0 7.01039 0.754283 7.76468 1.66386 7.76468Z" fill="#141416"/>
</svg>
