<svg width="50" height="50" viewBox="0 0 50 50" fill="none" xmlns="http://www.w3.org/2000/svg">
<g clip-path="url(#clip0_7_121)">
<g clip-path="url(#clip1_7_121)">
<path d="M8.6106 0V50H41.3895V0H8.6106ZM39.9217 48.5323H10.0783V1.46771H39.9217V48.5323Z" fill="#7E83C9"/>
<path d="M35.91 6.26221H14.0901V15.5577H35.91V6.26221ZM34.4423 14.09H15.5578V7.72992H34.4423V14.09Z" fill="#7E83C9"/>
<path d="M21.9177 23.3855H28.0821V18.0039H21.9177V23.3855ZM23.3854 19.4716H26.6144V21.9178H23.3854V19.4716Z" fill="#7E83C9"/>
<path d="M29.7456 23.3855H35.91V18.0039H29.7456V23.3855ZM31.2133 19.4716H34.4423V21.9178H31.2133V19.4716Z" fill="#7E83C9"/>
<path d="M20.2545 18.0039H14.0901V23.3855H20.2545V18.0039ZM18.7868 21.9178H15.5578V19.4716H18.7868V21.9178Z" fill="#7E83C9"/>
<path d="M21.9177 30.4304H28.0821V25.0488H21.9177V30.4304ZM23.3854 26.5165H26.6144V28.9627H23.3854V26.5165Z" fill="#7E83C9"/>
<path d="M29.7456 30.4304H35.91V25.0488H29.7456V30.4304ZM31.2133 26.5165H34.4423V28.9627H31.2133V26.5165Z" fill="#7E83C9"/>
<path d="M20.2545 25.0488H14.0901V30.4304H20.2545V25.0488ZM18.7868 28.9627H15.5578V26.5165H18.7868V28.9627Z" fill="#7E83C9"/>
<path d="M21.9177 37.4754H28.0821V32.0938H21.9177V37.4754ZM23.3854 33.5615H26.6144V36.0076H23.3854V33.5615Z" fill="#7E83C9"/>
<path d="M29.7456 44.5204H35.91V32.0938H29.7456V44.5204ZM31.2133 33.5615H34.4423V43.0527H31.2133V33.5615Z" fill="#7E83C9"/>
<path d="M20.2545 32.0938H14.0901V37.4754H20.2545V32.0938ZM18.7868 36.0076H15.5578V33.5615H18.7868V36.0076Z" fill="#7E83C9"/>
<path d="M21.9177 44.5208H28.0821V39.1392H21.9177V44.5208ZM23.3854 40.6069H26.6144V43.0531H23.3854V40.6069Z" fill="#7E83C9"/>
<path d="M20.2545 39.1392H14.0901V44.5208H20.2545V39.1392ZM18.7868 43.0531H15.5578V40.6069H18.7868V43.0531Z" fill="#7E83C9"/>
<path d="M19.5206 10.1763H17.9551V11.644H19.5206V10.1763Z" fill="#7E83C9"/>
<path d="M25.7828 10.1763H24.2173V11.644H25.7828V10.1763Z" fill="#7E83C9"/>
<path d="M28.9139 10.1763H27.3484V11.644H28.9139V10.1763Z" fill="#7E83C9"/>
<path d="M32.045 10.1763H30.4795V11.644H32.045V10.1763Z" fill="#7E83C9"/>
<path d="M22.6517 10.1763H21.0862V11.644H22.6517V10.1763Z" fill="#7E83C9"/>
</g>
</g>
<defs>
<clipPath id="clip0_7_121">
<rect width="50" height="50" fill="white"/>
</clipPath>
<clipPath id="clip1_7_121">
<rect width="50" height="50" fill="white"/>
</clipPath>
</defs>
</svg>
