<svg width="50" height="50" viewBox="0 0 50 50" fill="none" xmlns="http://www.w3.org/2000/svg">
<g clip-path="url(#clip0_7_155)">
<g clip-path="url(#clip1_7_155)">
<path d="M5.47949 0V50H44.5206V0H5.47949ZM43.0529 48.5323H6.9472V1.46771H43.0529V48.5323Z" fill="#7E83C9"/>
<path d="M39.8729 9.39355H27.3486V10.8613H39.8729V9.39355Z" fill="#7E83C9"/>
<path d="M25.7826 9.39355H20.3033V10.8613H25.7826V9.39355Z" fill="#7E83C9"/>
<path d="M39.8728 12.5244H34.3937V13.9921H39.8728V12.5244Z" fill="#7E83C9"/>
<path d="M32.8275 12.5244H20.3033V13.9921H32.8275V12.5244Z" fill="#7E83C9"/>
<path d="M39.8728 15.6558H24.2172V17.1235H39.8728V15.6558Z" fill="#7E83C9"/>
<path d="M22.6518 15.6558H20.3033V17.1235H22.6518V15.6558Z" fill="#7E83C9"/>
<path d="M39.8729 21.1353H27.3486V22.603H39.8729V21.1353Z" fill="#7E83C9"/>
<path d="M25.7826 21.1353H20.3033V22.603H25.7826V21.1353Z" fill="#7E83C9"/>
<path d="M39.8728 24.2661H34.3937V25.7338H39.8728V24.2661Z" fill="#7E83C9"/>
<path d="M32.8275 24.2661H20.3033V25.7338H32.8275V24.2661Z" fill="#7E83C9"/>
<path d="M39.8728 27.3975H24.2172V28.8652H39.8728V27.3975Z" fill="#7E83C9"/>
<path d="M22.6518 27.3975H20.3033V28.8652H22.6518V27.3975Z" fill="#7E83C9"/>
<path d="M39.8729 32.877H27.3486V34.3447H39.8729V32.877Z" fill="#7E83C9"/>
<path d="M25.7826 32.877H20.3033V34.3447H25.7826V32.877Z" fill="#7E83C9"/>
<path d="M39.8728 36.0078H34.3937V37.4755H39.8728V36.0078Z" fill="#7E83C9"/>
<path d="M32.8275 36.0078H20.3033V37.4755H32.8275V36.0078Z" fill="#7E83C9"/>
<path d="M39.8728 39.1392H24.2172V40.6069H39.8728V39.1392Z" fill="#7E83C9"/>
<path d="M22.6518 39.1392H20.3033V40.6069H22.6518V39.1392Z" fill="#7E83C9"/>
<path d="M17.9061 9.39355H10.1761V17.1235H17.9061V9.39355ZM16.4384 15.6558H11.6439V10.8613H16.4384V15.6558Z" fill="#7E83C9"/>
<path d="M17.9061 32.877H10.1761V40.6069H17.9061V32.877ZM16.4384 39.1392H11.6439V34.3447H16.4384V39.1392Z" fill="#7E83C9"/>
<path d="M17.9061 22.9555L19.6481 21.2135L18.6103 20.1758L17.6511 21.135H10.1761V28.8649H17.9061V22.9555ZM16.1834 22.6027L14.0411 24.745L11.8988 22.6027H16.1834ZM11.6439 27.3972V24.4232L14.0411 26.8205L16.4384 24.4232V27.3972H11.6439Z" fill="#7E83C9"/>
</g>
</g>
<defs>
<clipPath id="clip0_7_155">
<rect width="50" height="50" fill="white"/>
</clipPath>
<clipPath id="clip1_7_155">
<rect width="50" height="50" fill="white"/>
</clipPath>
</defs>
</svg>
