<svg width="50" height="50" viewBox="0 0 50 50" fill="none" xmlns="http://www.w3.org/2000/svg">
<g clip-path="url(#clip0_7_185)">
<g clip-path="url(#clip1_7_185)">
<path d="M34.3444 10.1759V6.94697H35.91V2.34814H14.09V6.94697H15.6556V10.1759H0V33.3608L0.507045 33.5255C0.858708 33.6398 1.21184 33.7508 1.56556 33.8603V47.6515H48.4344V33.8603C48.7882 33.7508 49.1413 33.6398 49.493 33.5255L50 33.3608V10.1759H34.3444ZM15.5577 3.81585H34.4423V5.47926H15.5577V3.81585ZM17.1233 6.94697H32.8767V10.1759H17.1233V6.94697ZM46.9667 46.1838H3.03327V34.2987C5.89481 35.1236 8.81184 35.7902 11.7417 36.2876V40.6065H16.3405V36.9285C19.2159 37.2444 22.1074 37.4042 25 37.4042C27.8919 37.4042 30.7843 37.2443 33.6595 36.9285V40.6065H38.2583V36.2876C41.1881 35.7902 44.1052 35.1236 46.9667 34.2987V46.1838ZM13.2094 37.4753H14.8728V39.1388H13.2094V37.4753ZM14.8728 36.0076H13.2094V32.7787H14.8728V36.0076ZM35.1272 37.4753H36.7906V39.1388H35.1272V37.4753ZM36.7906 36.0076H35.1272V32.7787H36.7906V36.0076ZM48.5323 32.2925C45.1771 33.357 41.7275 34.198 38.2583 34.7984V31.311H33.6595V35.4515C27.9097 36.0953 22.0903 36.0953 16.3405 35.4515V31.311H11.7417V34.7984C8.2725 34.198 4.8229 33.357 1.46771 32.2925V11.6436H48.5323V32.2925Z" fill="#7E83C9"/>
</g>
</g>
<defs>
<clipPath id="clip0_7_185">
<rect width="50" height="50" fill="white"/>
</clipPath>
<clipPath id="clip1_7_185">
<rect width="50" height="50" fill="white"/>
</clipPath>
</defs>
</svg>
