<svg width="50" height="50" viewBox="0 0 50 50" fill="none" xmlns="http://www.w3.org/2000/svg">
<g clip-path="url(#clip0_7_201)">
<g clip-path="url(#clip1_7_201)">
<path d="M50 5.8708H20.2544V3.52246H4.69667V5.8708H0V44.1291H4.69667V46.4775H20.2544V44.1291H50V5.8708ZM1.46771 42.6614V7.33851H4.69667V42.6614H1.46771ZM18.7867 45.0097H6.16438V4.99017H18.7867V45.0097ZM48.5323 42.6614H20.2544V7.33851H48.5323V42.6614Z" fill="#7E83C9"/>
<path d="M45.3034 10.5674H23.4834V19.8629H45.3034V10.5674ZM43.8356 18.3952H24.9511V12.0351H43.8356V18.3952Z" fill="#7E83C9"/>
<path d="M29.6478 22.3091H23.4834V26.9079H29.6478V22.3091ZM28.1801 25.4402H24.9511V23.7768H28.1801V25.4402Z" fill="#7E83C9"/>
<path d="M31.3112 26.9079H37.4755V22.3091H31.3112V26.9079ZM32.7789 23.7768H36.0078V25.4402H32.7789V23.7768Z" fill="#7E83C9"/>
<path d="M39.1389 26.9079H45.3033V22.3091H39.1389V26.9079ZM40.6066 23.7768H43.8356V25.4402H40.6066V23.7768Z" fill="#7E83C9"/>
<path d="M29.6478 28.5713H23.4834V33.1701H29.6478V28.5713ZM28.1801 31.7024H24.9511V30.039H28.1801V31.7024Z" fill="#7E83C9"/>
<path d="M31.3112 33.1701H37.4755V28.5713H31.3112V33.1701ZM32.7789 30.039H36.0078V31.7024H32.7789V30.039Z" fill="#7E83C9"/>
<path d="M39.1389 33.1701H45.3033V28.5713H39.1389V33.1701ZM40.6066 30.039H43.8356V31.7024H40.6066V30.039Z" fill="#7E83C9"/>
<path d="M29.6478 39.4323V34.8335H23.4834V39.4323H29.6478ZM24.9511 36.3012H28.1801V37.9646H24.9511V36.3012Z" fill="#7E83C9"/>
<path d="M31.3112 39.4323H37.4755V34.8335H31.3112V39.4323ZM32.7789 36.3012H36.0078V37.9646H32.7789V36.3012Z" fill="#7E83C9"/>
<path d="M39.1389 39.4323H45.3033V34.8335H39.1389V39.4323ZM40.6066 36.3012H43.8356V37.9646H40.6066V36.3012Z" fill="#7E83C9"/>
<path d="M17.1232 7.38721H15.6555V9.73554H17.1232V7.38721Z" fill="#7E83C9"/>
<path d="M17.1232 11.3013H15.6555V20.6946H17.1232V11.3013Z" fill="#7E83C9"/>
<path d="M28.9139 14.4814H27.3484V15.9492H28.9139V14.4814Z" fill="#7E83C9"/>
<path d="M32.045 14.4814H30.4795V15.9492H32.045V14.4814Z" fill="#7E83C9"/>
<path d="M35.1762 14.4814H33.6106V15.9492H35.1762V14.4814Z" fill="#7E83C9"/>
<path d="M38.3073 14.4814H36.7417V15.9492H38.3073V14.4814Z" fill="#7E83C9"/>
<path d="M41.4384 14.4814H39.8728V15.9492H41.4384V14.4814Z" fill="#7E83C9"/>
</g>
</g>
<defs>
<clipPath id="clip0_7_201">
<rect width="50" height="50" fill="white"/>
</clipPath>
<clipPath id="clip1_7_201">
<rect width="50" height="50" fill="white"/>
</clipPath>
</defs>
</svg>
