<svg width="50" height="50" viewBox="0 0 50 50" fill="none" xmlns="http://www.w3.org/2000/svg">
<g clip-path="url(#clip0_7_193)">
<g clip-path="url(#clip1_7_193)">
<path d="M50 11.7417H44.6184V16.3405H48.4834V14.8728H46.0861V13.2094H48.5323V25.8317H45.3033H44.5695H26.6145V28.1801H23.3855V25.8317H5.43053H4.69667H1.46771V13.2094H3.91389V14.8728H1.51663V16.3405H5.3816V11.7417H0V30.2257L4.69667 31.7912V37.2309C4.69667 37.7975 5.15753 38.2583 5.72407 38.2583H21.9667C22.749 38.2583 23.3855 37.6218 23.3855 36.8395V29.6478H26.6145V36.8395C26.6145 37.6218 27.251 38.2583 28.0333 38.2583H44.2759C44.8425 38.2583 45.3033 37.7975 45.3033 37.2309V31.7912L50 30.2257V11.7417ZM1.46771 29.1677V27.2994H4.69667V30.244L1.46771 29.1677ZM21.9178 36.7906H19.8245L12.9934 29.9596L11.9557 30.9974L17.7489 36.7906H6.16438V27.2994H8.25773L10.3902 29.4319L11.428 28.3941L10.3333 27.2994H21.9178V36.7906ZM43.8356 36.7906H41.7423L34.9113 29.9596L33.8735 30.9974L39.6667 36.7906H28.0822V27.2994H30.1755L32.308 29.4319L33.3458 28.3941L32.2511 27.2994H43.8356V36.7906ZM45.3033 30.244V27.2994H48.5323V29.1677L45.3033 30.244Z" fill="#7E83C9"/>
</g>
</g>
<defs>
<clipPath id="clip0_7_193">
<rect width="50" height="50" fill="white"/>
</clipPath>
<clipPath id="clip1_7_193">
<rect width="50" height="50" fill="white"/>
</clipPath>
</defs>
</svg>
