<svg width="60" height="60" viewBox="0 0 60 60" fill="none" xmlns="http://www.w3.org/2000/svg">
<g clip-path="url(#clip0_7_302)">
<g clip-path="url(#clip1_7_302)">
<g clip-path="url(#clip2_7_302)">
<path d="M6.17596 17.7323H20.2696C20.7552 17.7323 21.1486 17.3387 21.1486 16.8532C21.1486 16.3677 20.7552 15.9741 20.2696 15.9741H6.17596C5.69035 15.9741 5.29688 16.3677 5.29688 16.8532C5.29688 17.3387 5.69047 17.7323 6.17596 17.7323Z" fill="#7E83C9"/>
<path d="M6.17596 22.2156H16.2864C16.772 22.2156 17.1654 21.8221 17.1654 21.3366C17.1654 20.8511 16.772 20.4575 16.2864 20.4575H6.17596C5.69035 20.4575 5.29688 20.8511 5.29688 21.3366C5.29688 21.8221 5.69047 22.2156 6.17596 22.2156Z" fill="#7E83C9"/>
<path d="M6.17596 44.3036H18.158C18.6436 44.3036 19.0371 43.91 19.0371 43.4245C19.0371 42.939 18.6436 42.5454 18.158 42.5454H6.17596C5.69035 42.5454 5.29688 42.939 5.29688 43.4245C5.29688 43.91 5.69047 44.3036 6.17596 44.3036Z" fill="#7E83C9"/>
<path d="M6.17596 48.7869H19.4547C19.9403 48.7869 20.3338 48.3933 20.3338 47.9079C20.3338 47.4224 19.9403 47.0288 19.4547 47.0288H6.17596C5.69035 47.0288 5.29688 47.4224 5.29688 47.9079C5.29688 48.3933 5.69047 48.7869 6.17596 48.7869Z" fill="#7E83C9"/>
<path d="M6.17596 53.2699H21.2427C21.7283 53.2699 22.1218 52.8763 22.1218 52.3908C22.1218 51.9053 21.7283 51.5117 21.2427 51.5117H6.17596C5.69035 51.5117 5.29688 51.9053 5.29688 52.3908C5.29688 52.8763 5.69047 53.2699 6.17596 53.2699Z" fill="#7E83C9"/>
<path d="M59.9592 46.7567C59.8098 45.7159 59.2637 44.7955 58.422 44.1652L44.5726 33.7952C45.1309 32.3853 45.4379 30.8495 45.4379 29.2433C45.4379 25.9976 44.1841 23.0398 42.1361 20.827V11.2395C42.1361 9.6177 40.8166 8.29813 39.1947 8.29813H30.8046V7.23713C30.8046 6.36742 30.097 5.6597 29.2272 5.6597H26.2812C26.2358 2.82388 23.9147 0.530762 21.0681 0.530762C18.2215 0.530762 15.9003 2.82377 15.855 5.65982H12.9089C12.039 5.65982 11.3314 6.36742 11.3314 7.23725V8.29825H2.94142C1.31957 8.29825 0 9.6177 0 11.2395V47.8163C0 48.3018 0.393479 48.6954 0.879087 48.6954C1.36469 48.6954 1.75817 48.3018 1.75817 47.8163V11.2395C1.75817 10.5871 2.28891 10.0563 2.94142 10.0563H11.3315V11.1173C11.3315 11.987 12.0391 12.6947 12.909 12.6947H29.2272C30.097 12.6947 30.8046 11.9871 30.8046 11.1173V10.0563H39.1947C39.8471 10.0563 40.378 10.587 40.378 11.2395V19.2544C38.3209 17.7383 35.7812 16.8408 33.0354 16.8408C26.1965 16.8408 20.6329 22.4045 20.6329 29.2433C20.6329 31.8928 21.4566 34.4206 23.0153 36.5537C23.3018 36.9456 23.8518 37.0313 24.2437 36.7449C24.6358 36.4584 24.7212 35.9084 24.4349 35.5165C23.0977 33.6866 22.3909 31.5173 22.3909 29.2434C22.3909 23.3742 27.166 18.5991 33.0352 18.5991C38.9045 18.5991 43.6796 23.3742 43.6796 29.2434C43.6796 35.1127 38.9046 39.8878 33.0352 39.8878C30.9456 39.8878 28.9231 39.2828 27.1865 38.1385C26.781 37.8714 26.2358 37.9834 25.9687 38.3889C25.7016 38.7943 25.8136 39.3395 26.219 39.6067C28.2438 40.9408 30.6008 41.6461 33.0352 41.6461C35.3993 41.6461 37.6107 40.9809 39.4929 39.8283L40.3779 40.4909V56.5285C40.3779 57.1809 39.8471 57.7117 39.1946 57.7117H2.94142C2.28902 57.7117 1.75817 57.1809 1.75817 56.5285V51.919C1.75817 51.4335 1.36469 51.0399 0.879087 51.0399C0.393479 51.0399 0 51.4335 0 51.919V56.5285C0 58.1504 1.31957 59.4698 2.94142 59.4698H39.1947C40.8166 59.4698 42.1361 58.1504 42.1361 56.5285V41.8072L53.7028 50.468C54.3911 50.9834 55.2094 51.2542 56.0543 51.2542C56.2427 51.2542 56.4325 51.2408 56.6224 51.2135C57.6634 51.0639 58.5836 50.5179 59.214 49.6761C59.844 48.8344 60.1088 47.7976 59.9592 46.7567ZM29.0464 10.9365H13.0897V7.41787H16.3529C17.0475 7.41787 17.6126 6.8528 17.6126 6.1582V5.74433C17.6126 3.83894 19.1628 2.28881 21.0681 2.28881C22.9733 2.28881 24.5236 3.83894 24.5236 5.74433V6.1582C24.5236 6.8528 25.0885 7.41787 25.7831 7.41787H29.0463L29.0464 10.9365ZM40.9889 38.7518C42.1087 37.8136 43.0614 36.6822 43.7941 35.4085L45.8445 36.9439L43.2328 40.4319L40.9889 38.7518ZM57.8064 48.6224C57.4576 49.0883 56.9483 49.3903 56.3723 49.4731C55.7959 49.5561 55.2223 49.4093 54.7565 49.0605L44.6402 41.4857L47.252 37.9976L57.3682 45.5724C58.3299 46.2927 58.5264 47.6608 57.8064 48.6224Z" fill="#0C1014"/>
<path d="M33.0356 37.4728C37.5735 37.4728 41.2653 33.7808 41.2653 29.243C41.2653 24.7052 37.5735 21.0132 33.0356 21.0132C28.4976 21.0132 24.8057 24.7052 24.8057 29.243C24.8057 33.781 28.4976 37.4728 33.0356 37.4728ZM33.0356 22.7714C36.6039 22.7714 39.5072 25.6746 39.5072 29.243C39.5072 32.8115 36.6039 35.7146 33.0356 35.7146C29.467 35.7146 26.5638 32.8114 26.5638 29.243C26.5638 25.6746 29.4669 22.7714 33.0356 22.7714Z" fill="#7E83C9"/>
</g>
</g>
</g>
<defs>
<clipPath id="clip0_7_302">
<rect width="60" height="60" fill="white"/>
</clipPath>
<clipPath id="clip1_7_302">
<rect width="60" height="60" fill="white"/>
</clipPath>
<clipPath id="clip2_7_302">
<rect width="60" height="60" fill="white"/>
</clipPath>
</defs>
</svg>
