<svg width="60" height="60" viewBox="0 0 60 60" fill="none" xmlns="http://www.w3.org/2000/svg">
<g clip-path="url(#clip0_7_319)">
<g clip-path="url(#clip1_7_319)">
<g clip-path="url(#clip2_7_319)">
<path d="M8.02734 57.3632V11.9194H6.26953V57.3632C6.26953 58.8171 7.4523 59.9999 8.90625 59.9999H47.8544V58.2421H8.90625C8.42156 58.2421 8.02734 57.8479 8.02734 57.3632Z" fill="black"/>
<path d="M51.0938 5.27344H41.4258V3.51562H34.3062C33.8979 1.5123 32.1221 0 30 0C27.8779 0 26.1022 1.5123 25.6938 3.51562H18.5742V5.27344H8.90625C7.4523 5.27344 6.26953 6.45621 6.26953 7.91016V12.3047H8.02734V7.91016C8.02734 7.42547 8.42156 7.03125 8.90625 7.03125H18.5742V12.3047H41.4258V7.03125H51.0938C51.5784 7.03125 51.9727 7.42547 51.9727 7.91016V57.3633C51.9727 57.848 51.5784 58.2422 51.0938 58.2422H46.6993V60H51.0938C52.5476 60 53.7305 58.8172 53.7305 57.3633V7.91016C53.7305 6.45621 52.5476 5.27344 51.0938 5.27344ZM39.668 10.5468H20.332V5.27344H27.3633V4.39453C27.3633 2.94059 28.5461 1.75781 30 1.75781C31.4539 1.75781 32.6367 2.94059 32.6367 4.39453V5.27344H39.668V10.5468Z" fill="black"/>
<path d="M39.6431 45C37.28 45 35.3574 46.9226 35.3574 49.2857C35.3574 51.6489 37.28 53.5714 39.6431 53.5714C42.0063 53.5714 43.9289 51.6489 43.9289 49.2857C43.9289 46.9226 42.0063 45 39.6431 45ZM39.6431 52.1429C38.0677 52.1429 36.786 50.8611 36.786 49.2857C36.786 47.7103 38.0677 46.4286 39.6431 46.4286C41.2186 46.4286 42.5003 47.7103 42.5003 49.2857C42.5003 50.8611 41.2186 52.1429 39.6431 52.1429Z" fill="#7E83C9"/>
<path d="M24.6427 22.5001C24.6427 20.1369 22.7201 18.2144 20.357 18.2144C17.9939 18.2144 16.0713 20.1369 16.0713 22.5001C16.0713 24.8632 17.9939 26.7858 20.357 26.7858C22.7201 26.7858 24.6427 24.8632 24.6427 22.5001ZM20.357 25.3572C18.7816 25.3572 17.4999 24.0755 17.4999 22.5001C17.4999 20.9246 18.7816 19.6429 20.357 19.6429C21.9324 19.6429 23.2141 20.9246 23.2141 22.5001C23.2141 24.0755 21.9324 25.3572 20.357 25.3572Z" fill="#7E83C9"/>
<path d="M27.9799 39.5542L30.0002 37.5338L32.0206 39.5542L33.0306 38.544L31.0103 36.5237L33.0306 34.5034L32.0206 33.4932L30.0002 35.5136L27.9799 33.4932L26.9697 34.5034L28.9901 36.5237L26.9697 38.544L27.9799 39.5542Z" fill="black"/>
<path d="M36.551 26.6019L38.5714 24.5816L40.5918 26.6019L41.6018 25.5918L39.5815 23.5715L41.6018 21.5511L40.5918 20.541L38.5714 22.5613L36.551 20.541L35.541 21.5511L37.5613 23.5715L35.541 25.5918L36.551 26.6019Z" fill="black"/>
<path d="M24.2849 47.3334V45.9049C23.1033 45.9049 22.1421 44.9436 22.1421 43.762V32.4387L22.943 33.2396L23.9531 32.2295L21.4278 29.7041L18.9023 32.2294L19.9124 33.2395L20.7134 32.4386V43.762C20.7135 45.7313 22.3156 47.3334 24.2849 47.3334Z" fill="#7E83C9"/>
<path d="M29.1211 3.51562H30.8789V5.27344H29.1211V3.51562Z" fill="black"/>
<path d="M35 33.5714H36.4286V32.4388L37.8571 33.8672V40.905H39.2857V33.2756L37.4388 31.4286H38.5714V30H35V33.5714Z" fill="#7E83C9"/>
</g>
</g>
</g>
<defs>
<clipPath id="clip0_7_319">
<rect width="60" height="60" fill="white"/>
</clipPath>
<clipPath id="clip1_7_319">
<rect width="60" height="60" fill="white"/>
</clipPath>
<clipPath id="clip2_7_319">
<rect width="60" height="60" fill="white"/>
</clipPath>
</defs>
</svg>
