<svg width="36" height="36" viewBox="0 0 36 36" fill="none" xmlns="http://www.w3.org/2000/svg">
<g clip-path="url(#clip0_7_355)">
<g clip-path="url(#clip1_7_355)">
<g clip-path="url(#clip2_7_355)">
<path d="M18.0045 0H17.9955C8.07075 0 0 8.073 0 18C0 21.9375 1.269 25.587 3.42675 28.5503L1.1835 35.2373L8.10225 33.0255C10.9485 34.911 14.3438 36 18.0045 36C27.9292 36 36 27.9247 36 18C36 8.07525 27.9292 0 18.0045 0Z" fill="#4CAF50"/>
<path d="M28.4782 25.4189C28.044 26.6451 26.3205 27.6621 24.9457 27.9591C24.0052 28.1594 22.7767 28.3191 18.6412 26.6046C13.3515 24.4131 9.94499 19.0379 9.67949 18.6891C9.42524 18.3404 7.54199 15.8429 7.54199 13.2599C7.54199 10.6769 8.85374 9.41915 9.38249 8.87915C9.81674 8.4359 10.5345 8.2334 11.223 8.2334C11.4457 8.2334 11.646 8.24465 11.826 8.25365C12.3547 8.27615 12.6202 8.30765 12.969 9.1424C13.4032 10.1887 14.4607 12.7717 14.5867 13.0372C14.715 13.3027 14.8432 13.6627 14.6632 14.0114C14.4945 14.3714 14.346 14.5312 14.0805 14.8372C13.815 15.1432 13.563 15.3772 13.2975 15.7057C13.0545 15.9914 12.78 16.2974 13.086 16.8262C13.392 17.3437 14.4495 19.0694 16.0065 20.4554C18.0157 22.2441 19.6447 22.8156 20.2275 23.0586C20.6617 23.2386 21.1792 23.1959 21.4965 22.8584C21.8992 22.4241 22.3965 21.7041 22.9027 20.9954C23.2627 20.4869 23.7172 20.4239 24.1942 20.6039C24.6802 20.7726 27.252 22.0439 27.7807 22.3071C28.3095 22.5726 28.6582 22.6986 28.7865 22.9214C28.9125 23.1441 28.9125 24.1904 28.4782 25.4189Z" fill="#FAFAFA"/>
</g>
</g>
</g>
<defs>
<clipPath id="clip0_7_355">
<rect width="36" height="36" fill="white"/>
</clipPath>
<clipPath id="clip1_7_355">
<rect width="36" height="36" fill="white"/>
</clipPath>
<clipPath id="clip2_7_355">
<rect width="36" height="36" fill="white"/>
</clipPath>
</defs>
</svg>
