<svg width="18" height="18" viewBox="0 0 18 18" fill="none" xmlns="http://www.w3.org/2000/svg">
<g clip-path="url(#clip0_7_561)">
<g clip-path="url(#clip1_7_561)">
<g clip-path="url(#clip2_7_561)">
<path d="M9 18C13.9706 18 18 13.9706 18 9C18 4.02944 13.9706 0 9 0C4.02944 0 0 4.02944 0 9C0 13.9706 4.02944 18 9 18Z" fill="#4DA0DF"/>
<path d="M4.20762 9.16873L6.27675 9.94028L7.08335 12.5354C7.11845 12.7108 7.32885 12.7459 7.46915 12.6407L8.62645 11.6938C8.73165 11.5886 8.907 11.5886 9.0473 11.6938L11.1164 13.2018C11.2567 13.307 11.4671 13.2368 11.5022 13.0615L13.0453 5.69678C13.0803 5.52143 12.905 5.34608 12.7296 5.41623L4.20762 8.71283C3.9972 8.78293 3.9972 9.09858 4.20762 9.16873ZM6.97815 9.55448L11.0463 7.06453C11.1164 7.02943 11.1866 7.13463 11.1164 7.16973L7.7848 10.291C7.67955 10.3962 7.57435 10.5364 7.57435 10.7118L7.46915 11.5535C7.46915 11.6587 7.2938 11.6938 7.2587 11.5535L6.8379 10.0104C6.73265 9.83503 6.8028 9.62463 6.97815 9.55448Z" fill="white"/>
</g>
</g>
</g>
<defs>
<clipPath id="clip0_7_561">
<rect width="18" height="18" fill="white"/>
</clipPath>
<clipPath id="clip1_7_561">
<rect width="18" height="18" fill="white"/>
</clipPath>
<clipPath id="clip2_7_561">
<rect width="18" height="18" fill="white"/>
</clipPath>
</defs>
</svg>
