<svg width="60" height="60" viewBox="0 0 60 60" fill="none" xmlns="http://www.w3.org/2000/svg">
<rect width="60" height="60" rx="3" fill="white"/>
<g clip-path="url(#clip0_7_76)">
<g clip-path="url(#clip1_7_76)">
<path d="M24.37 31.46L26.88 32.46C26.9858 32.4984 27.0974 32.5187 27.21 32.52C27.3489 32.5204 27.486 32.4887 27.6105 32.4272C27.7351 32.3658 27.8438 32.2764 27.928 32.166C28.0123 32.0556 28.0699 31.9272 28.0962 31.7908C28.1226 31.6545 28.117 31.5139 28.08 31.38L27.51 29.38C28.981 27.8666 29.8057 25.8405 29.81 23.73C29.7472 21.4303 28.775 19.2494 27.1066 17.6654C25.4383 16.0814 23.2099 15.2236 20.91 15.28C18.6176 15.2233 16.3955 16.074 14.7269 17.647C13.0584 19.22 12.0784 21.3882 12 23.68C12.0654 25.9806 13.0398 28.1615 14.7098 29.7452C16.3797 31.329 18.6092 32.1865 20.91 32.13C22.0957 32.131 23.2704 31.9035 24.37 31.46ZM13.8 23.68C13.8575 21.8515 14.6387 20.1206 15.972 18.868C17.3053 17.6153 19.0815 16.9434 20.91 17C22.7359 16.9462 24.5084 17.6196 25.8379 18.8722C27.1674 20.1248 27.9451 21.8542 28 23.68C27.9953 24.5711 27.8042 25.4513 27.4391 26.2642C27.074 27.077 26.5429 27.8046 25.88 28.4C25.7573 28.511 25.6679 28.654 25.622 28.813C25.5761 28.972 25.5754 29.1406 25.62 29.3L25.85 30.11L24.68 29.65C24.5692 29.6033 24.4502 29.5792 24.33 29.5792C24.2098 29.5792 24.0908 29.6033 23.98 29.65C23.0109 30.0833 21.9616 30.3081 20.9 30.31C19.0815 30.3641 17.3153 29.6978 15.9856 28.4562C14.6559 27.2145 13.8704 25.4979 13.8 23.68Z" fill="black"/>
<path d="M42.7301 29.1799C43.8657 28.4034 44.7228 27.2836 45.1758 25.9846C45.6289 24.6857 45.6541 23.2757 45.2477 21.9614C44.8413 20.6471 44.0247 19.4975 42.9175 18.6809C41.8103 17.8644 40.4708 17.4238 39.0951 17.4238C37.7193 17.4238 36.3798 17.8644 35.2726 18.6809C34.1654 19.4975 33.3489 20.6471 32.9425 21.9614C32.5361 23.2757 32.5612 24.6857 33.0143 25.9846C33.4673 27.2836 34.3244 28.4034 35.4601 29.1799C33.9142 29.7411 32.5788 30.7651 31.6358 32.1125C30.6928 33.46 30.188 35.0653 30.1901 36.7099V37.4199L29.0901 35.2599C29.0129 35.1139 28.898 34.9915 28.7572 34.9052C28.6165 34.819 28.4551 34.7723 28.2901 34.7699H16.0501C15.896 34.7701 15.7446 34.8098 15.6104 34.8853C15.4761 34.9607 15.3634 35.0694 15.2831 35.2008C15.2029 35.3323 15.1577 35.4821 15.1519 35.636C15.1461 35.7899 15.1799 35.9428 15.2501 36.0799L19.4301 44.2799C19.4707 44.3592 19.5211 44.4331 19.5801 44.4999H19.6301C19.6893 44.5609 19.7609 44.6086 19.8401 44.6399H19.9201C20.0185 44.68 20.1238 44.7004 20.2301 44.6999H47.1001C47.3388 44.6999 47.5677 44.6051 47.7365 44.4363C47.9052 44.2675 48.0001 44.0386 48.0001 43.7999V36.7099C48.0022 35.0653 47.4973 33.46 46.5543 32.1125C45.6113 30.7651 44.276 29.7411 42.7301 29.1799ZM34.4601 23.8599C34.466 22.9454 34.7426 22.0533 35.2549 21.2958C35.7672 20.5384 36.4924 19.9496 37.3389 19.6038C38.1854 19.2579 39.1154 19.1705 40.0116 19.3525C40.9077 19.5346 41.7299 19.9779 42.3744 20.6266C43.0189 21.2753 43.4569 22.1003 43.6332 22.9976C43.8094 23.8949 43.716 24.8243 43.3647 25.6686C43.0134 26.5128 42.4199 27.2342 41.6592 27.7416C40.8985 28.2491 40.0045 28.5199 39.0901 28.5199C37.8585 28.5146 36.6794 28.021 35.8114 27.1473C34.9434 26.2737 34.4574 25.0914 34.4601 23.8599ZM20.7801 42.9999L17.5201 36.5999H27.7401L31.0001 42.9999H20.7801ZM46.2001 42.9999H33.0701L32.0001 40.2999V36.7099C31.9813 35.0962 32.6017 33.5406 33.7259 32.3828C34.85 31.2249 36.3865 30.5588 38.0001 30.5299H40.1501C41.7627 30.5614 43.2978 31.2283 44.4213 32.3856C45.5449 33.5429 46.1662 35.097 46.1501 36.7099L46.2001 42.9999Z" fill="black"/>
<path d="M21.8601 26.3802V22.5802C21.8601 22.3415 21.7652 22.1126 21.5965 21.9438C21.4277 21.775 21.1988 21.6802 20.9601 21.6802C20.7214 21.6802 20.4924 21.775 20.3237 21.9438C20.1549 22.1126 20.0601 22.3415 20.0601 22.5802V26.3802C20.0601 26.6189 20.1549 26.8478 20.3237 27.0166C20.4924 27.1854 20.7214 27.2802 20.9601 27.2802C21.1988 27.2802 21.4277 27.1854 21.5965 27.0166C21.7652 26.8478 21.8601 26.6189 21.8601 26.3802Z" fill="black"/>
<path d="M21 21.1498C21.2406 21.1396 21.468 21.0374 21.6355 20.8644C21.803 20.6913 21.8976 20.4606 21.9 20.2198C21.9 19.9811 21.8052 19.7522 21.6364 19.5834C21.4676 19.4146 21.2387 19.3198 21 19.3198C20.7613 19.3198 20.5324 19.4146 20.3636 19.5834C20.1948 19.7522 20.1 19.9811 20.1 20.2198V20.2898C20.0999 20.4062 20.1233 20.5214 20.169 20.6284C20.2147 20.7355 20.2817 20.8321 20.3658 20.9125C20.45 20.9929 20.5496 21.0554 20.6586 21.0962C20.7676 21.137 20.8837 21.1552 21 21.1498Z" fill="black"/>
</g>
</g>
<defs>
<clipPath id="clip0_7_76">
<rect width="40" height="40" fill="white" transform="translate(10 10)"/>
</clipPath>
<clipPath id="clip1_7_76">
<rect width="40" height="40" fill="white" transform="translate(10 10)"/>
</clipPath>
</defs>
</svg>
