<svg width="20" height="20" viewBox="0 0 20 20" fill="none" xmlns="http://www.w3.org/2000/svg">
<path d="M19.2613 13.7228L15.0274 11.9064C14.784 11.8026 14.5136 11.7804 14.2566 11.8431C13.9996 11.9058 13.7698 12.0499 13.6016 12.2541L11.8789 14.3595C9.16935 13.0269 6.97719 10.8347 5.64454 8.12515L7.75001 6.4025C7.9541 6.2343 8.09826 6.00456 8.16093 5.74763C8.22359 5.49069 8.2014 5.22038 8.09766 4.97711L6.28126 0.738824C6.16768 0.476006 5.96555 0.261327 5.71004 0.132144C5.45452 0.00296138 5.16181 -0.0325486 4.88282 0.0317932L0.945321 0.941949C0.676169 1.00283 0.435822 1.15366 0.263958 1.36956C0.0920932 1.58545 -0.00101347 1.8535 8.3213e-06 2.12945C8.3213e-06 12.0236 8.01954 20.0002 17.8707 20.0002C18.1476 20.0007 18.4164 19.907 18.633 19.7345C18.8496 19.562 19.0011 19.3209 19.0625 19.0509L19.9684 15.1173C20.0326 14.8389 19.9971 14.5467 19.8678 14.2918C19.7386 14.0369 19.5239 13.8355 19.2613 13.7228ZM17.8473 18.7502C8.68751 18.7384 1.26173 11.3166 1.25391 2.15679L5.14454 1.25836L6.94141 5.45328L4.09766 7.7775C5.98829 11.8087 8.1797 14.008 12.2266 15.9064L14.5508 13.0627L18.7457 14.8595L17.8473 18.7502Z" fill="#846441" fill-opacity="0.79"/>
</svg>
