<svg width="36" height="36" viewBox="0 0 36 36" fill="none" xmlns="http://www.w3.org/2000/svg">
<rect x="0.5" y="0.5" width="35" height="35" stroke="white"/>
<path d="M25.5469 14.13C25.559 14.2987 25.559 14.4676 25.559 14.6363C25.559 19.7841 21.6409 25.7156 14.4797 25.7156C12.2735 25.7156 10.224 25.0766 8.5 23.9676C8.81346 24.0037 9.11483 24.0158 9.44035 24.0158C11.2608 24.0158 12.9365 23.4009 14.2747 22.3521C12.5628 22.3159 11.1282 21.1947 10.6339 19.6516C10.875 19.6877 11.1161 19.7118 11.3693 19.7118C11.7189 19.7118 12.0685 19.6636 12.394 19.5792C10.6098 19.2175 9.27154 17.6503 9.27154 15.7575V15.7093C9.78992 15.9987 10.3928 16.1795 11.0317 16.2036C9.98282 15.5043 9.29566 14.3108 9.29566 12.9605C9.29566 12.2372 9.48852 11.5741 9.8261 10.9955C11.743 13.3584 14.6243 14.9015 17.8553 15.0703C17.795 14.781 17.7588 14.4796 17.7588 14.1782C17.7588 12.0323 19.4949 10.2842 21.6529 10.2842C22.774 10.2842 23.7867 10.7544 24.498 11.5139C25.3781 11.3451 26.222 11.0196 26.9695 10.5735C26.6801 11.4777 26.0653 12.2372 25.2576 12.7194C26.0412 12.6351 26.8007 12.418 27.4999 12.1167C26.9696 12.8882 26.3065 13.5754 25.5469 14.13Z" fill="white"/>
</svg>
