<svg width="60" height="60" viewBox="0 0 60 60" fill="none" xmlns="http://www.w3.org/2000/svg">
<rect width="60" height="60" rx="3" fill="white"/>
<g clip-path="url(#clip0_7_44)">
<g clip-path="url(#clip1_7_44)">
<g clip-path="url(#clip2_7_44)">
<path d="M35.7773 27.9485C35.52 28.1992 35.3773 28.5352 35.3747 28.8945C35.3727 29.2539 35.5113 29.5919 35.7653 29.8459L36.596 30.6765C36.812 30.8925 37.078 31.0279 37.3567 31.0832C37.4127 31.3619 37.5473 31.6279 37.7627 31.8432L38.482 32.5619C38.7633 32.8439 39.138 32.9985 39.5367 32.9985C39.9353 32.9985 40.31 32.8439 40.5913 32.5619L46.4953 26.6579C47.0773 26.0765 47.0773 25.1299 46.4953 24.5485L45.7767 23.8299C45.5613 23.6145 45.296 23.4799 45.018 23.4239C44.9613 23.1379 44.8207 22.8745 44.61 22.6632L43.7787 21.8312C43.5273 21.5799 43.184 21.4232 42.8227 21.4392C42.4687 21.4412 42.1393 21.5805 41.8933 21.8319L35.282 15.2439C35.5393 14.9932 35.682 14.6572 35.6847 14.2979C35.6873 13.9385 35.548 13.6005 35.294 13.3465L34.4633 12.5159C34.2547 12.3065 33.9873 12.1759 33.7053 12.1219C33.6513 11.8385 33.5153 11.5679 33.2967 11.3492L32.578 10.6305C32.0153 10.0672 31.032 10.0659 30.468 10.6305L24.564 16.5339C24.282 16.8159 24.1273 17.1899 24.1273 17.5885C24.1273 17.9879 24.282 18.3619 24.564 18.6439L25.2827 19.3625C25.4933 19.5732 25.756 19.7132 26.042 19.7705C26.0993 20.0559 26.2387 20.3185 26.4493 20.5292L27.28 21.3599C27.53 21.6099 27.8753 21.7532 28.2287 21.7532C28.2313 21.7532 28.234 21.7532 28.2367 21.7532C28.5907 21.7512 28.9207 21.6112 29.166 21.3599L30.23 22.4245C30.4233 22.6172 30.4233 22.9319 30.23 23.1245L25.3947 27.9599L24.9227 27.4879C24.142 26.7085 22.8733 26.7085 22.094 27.4885C21.3147 28.2685 21.3147 29.5372 22.094 30.3172L22.5653 30.7885L16.52 36.8339C16.1687 37.1852 15.7273 37.4352 15.244 37.5565L13.3067 38.0405C12.59 38.2205 11.934 38.5912 11.4113 39.1139L11.194 39.3305C10.4247 40.1025 10 41.1265 10 42.2159C10 43.3052 10.4247 44.3312 11.1953 45.1019L12.024 45.9299C12.7953 46.7005 13.82 47.1252 14.9093 47.1252C15.9993 47.1252 17.024 46.7005 17.7953 45.9299L18.012 45.7132C18.5347 45.1912 18.906 44.5352 19.0853 43.8172L19.5693 41.8805C19.69 41.3979 19.94 40.9565 20.292 40.6045L26.3373 34.5592L26.8087 35.0305C27.5647 35.7859 28.882 35.7852 29.6367 35.0312C30.0147 34.6539 30.2227 34.1512 30.2227 33.6165C30.2227 33.0825 30.0147 32.5799 29.6367 32.2025L29.1653 31.7312L34.0007 26.8959C34.194 26.7025 34.508 26.7025 34.7007 26.8952L35.7773 27.9485ZM45.5993 25.6032C45.5993 25.6332 45.5913 25.6765 45.5533 25.7152L39.6493 31.6192C39.5727 31.6959 39.502 31.6959 39.426 31.6192L38.7067 30.9005C38.6447 30.8385 38.6447 30.7385 38.7067 30.6765L44.6107 24.7725C44.6413 24.7419 44.682 24.7265 44.7227 24.7265C44.7633 24.7265 44.804 24.7419 44.8347 24.7725L45.5533 25.4912C45.5913 25.5292 45.5993 25.5732 45.5993 25.6032ZM25.46 17.5885C25.46 17.5585 25.468 17.5152 25.506 17.4765L31.41 11.5732C31.4487 11.5345 31.492 11.5272 31.522 11.5272C31.552 11.5272 31.5953 11.5352 31.634 11.5732L32.3527 12.2919C32.4147 12.3539 32.4147 12.4539 32.3527 12.5159L26.4487 18.4199C26.3873 18.4819 26.2867 18.4812 26.2247 18.4199L25.506 17.7012C25.468 17.6625 25.46 17.6192 25.46 17.5885ZM33.0587 25.9525L27.2807 31.7312L28.6947 33.1452C28.8207 33.2712 28.89 33.4385 28.89 33.6165C28.89 33.7952 28.8207 33.9619 28.6947 34.0879C28.4433 34.3405 28.004 34.3405 27.752 34.0879L26.3373 32.6739L19.3493 39.6619C18.826 40.1845 18.4553 40.8405 18.276 41.5579L17.792 43.4945C17.6713 43.9779 17.4213 44.4185 17.0693 44.7705L16.8527 44.9872C16.3333 45.5065 15.6427 45.7925 14.9093 45.7925C14.1867 45.7925 13.4787 45.4992 12.9667 44.9879L12.1387 44.1599C11.6193 43.6399 11.3333 42.9499 11.3333 42.2159C11.3333 41.4819 11.6193 40.7925 12.138 40.2732L12.3547 40.0565C12.7073 39.7045 13.1487 39.4545 13.6313 39.3332L15.5687 38.8492C16.2867 38.6692 16.942 38.2985 17.464 37.7765L24.4527 30.7885L23.038 29.3745C22.778 29.1145 22.778 28.6912 23.038 28.4312C23.168 28.3019 23.3387 28.2365 23.5093 28.2365C23.68 28.2365 23.8507 28.3019 23.9813 28.4312L25.3953 29.8452L31.1733 24.0672C31.886 23.3552 31.886 22.1945 31.1733 21.4819L30.1093 20.4172C29.8573 20.1652 29.5227 20.0265 29.1667 20.0265C29.164 20.0265 29.1607 20.0265 29.158 20.0265C28.7987 20.0285 28.4627 20.1719 28.2233 20.4172L27.3927 19.5865C27.354 19.5479 27.3467 19.5045 27.3467 19.4745C27.3467 19.4445 27.3547 19.4012 27.3927 19.3625L33.2973 13.4585C33.3733 13.3819 33.444 13.3819 33.5207 13.4585L34.3513 14.2892C34.1 14.5345 33.9607 14.8645 33.9587 15.2192C33.9567 15.5752 34.1 15.9239 34.352 16.1752L40.9513 22.7745C41.2033 23.0265 41.538 23.1652 41.894 23.1652C41.8967 23.1652 41.8993 23.1652 41.9027 23.1652C42.262 23.1632 42.5973 23.0199 42.8367 22.7745L43.668 23.6065C43.706 23.6445 43.714 23.6879 43.714 23.7172C43.714 23.7479 43.706 23.7912 43.668 23.8299L37.7633 29.7339C37.7007 29.7945 37.6013 29.7952 37.54 29.7339L36.71 28.9025C36.9607 28.6572 37.1 28.3279 37.102 27.9732C37.104 27.6179 36.9613 27.2685 36.7093 27.0165L35.6447 25.9519C34.9307 25.2405 33.7713 25.2405 33.0587 25.9525Z" fill="black"/>
<path d="M45.3334 44.459H39.3334C36.7601 44.459 34.6667 46.553 34.6667 49.1257V49.7923H50.0001V49.1257C50.0001 46.5523 47.9067 44.459 45.3334 44.459ZM36.0674 48.459C36.3767 46.9397 37.7241 45.7923 39.3334 45.7923H45.3334C46.9434 45.7923 48.2901 46.9397 48.5994 48.459H36.0674Z" fill="black"/>
<path d="M37.9999 42.459C37.6319 42.459 37.3333 42.757 37.3333 43.1257C37.3333 43.4943 37.6319 43.7923 37.9999 43.7923H46.6666C47.0346 43.7923 47.3333 43.4943 47.3333 43.1257C47.3333 42.757 47.0346 42.459 46.6666 42.459H37.9999Z" fill="black"/>
</g>
</g>
</g>
<defs>
<clipPath id="clip0_7_44">
<rect width="40" height="40" fill="white" transform="translate(10 10)"/>
</clipPath>
<clipPath id="clip1_7_44">
<rect width="40" height="40" fill="white" transform="translate(10 10)"/>
</clipPath>
<clipPath id="clip2_7_44">
<rect width="40" height="40" fill="white" transform="translate(10 10)"/>
</clipPath>
</defs>
</svg>
