<svg width="1300" height="696" viewBox="0 0 1300 696" fill="none" xmlns="http://www.w3.org/2000/svg">
<g clip-path="url(#clip0_7_227)">
<path d="M52 34.8998L51.7921 35.3546L51.7975 35.357L52 34.8998ZM60.1 41.6498L59.6796 41.9205L59.6818 41.9238L60.1 41.6498ZM52 68.9498L52.2025 69.407L52.2079 69.4045L52 68.9498ZM30.475 71.2748V70.7748H29.975V71.2748H30.475ZM30.475 84.9998V85.4998H30.975V84.9998H30.475ZM15.625 84.9998H15.125V85.4998H15.625V84.9998ZM15.625 32.4998V31.9998H15.125V32.4998H15.625ZM45.625 57.6248L45.9464 58.008L45.9534 58.0018L45.625 57.6248ZM30.475 44.1998V43.6998H29.975V44.1998H30.475ZM30.475 59.5748H29.975V60.0748H30.475V59.5748ZM39.625 32.9998C44.3197 32.9998 48.3708 33.7905 51.7921 35.3546L52.2079 34.4451C48.6292 32.8091 44.4303 31.9998 39.625 31.9998V32.9998ZM51.7975 35.357C55.2167 36.8712 57.8373 39.0601 59.6796 41.9205L60.5204 41.3791C58.5627 38.3395 55.7833 36.0284 52.2025 34.4426L51.7975 35.357ZM59.6818 41.9238C61.5213 44.7314 62.45 48.0582 62.45 51.9248H63.45C63.45 47.8914 62.4788 44.3682 60.5182 41.3758L59.6818 41.9238ZM62.45 51.9248C62.45 55.7914 61.5213 59.1182 59.6818 61.9258L60.5182 62.4738C62.4788 59.4814 63.45 55.9582 63.45 51.9248H62.45ZM59.6818 61.9258C57.839 64.7384 55.2161 66.9298 51.7921 68.4951L52.2079 69.4045C55.7839 67.7698 58.561 65.4612 60.5182 62.4738L59.6818 61.9258ZM51.7975 68.4926C48.3747 70.0085 44.3216 70.7748 39.625 70.7748V71.7748C44.4284 71.7748 48.6253 70.9911 52.2025 69.407L51.7975 68.4926ZM39.625 70.7748H30.475V71.7748H39.625V70.7748ZM29.975 71.2748V84.9998H30.975V71.2748H29.975ZM30.475 84.4998H15.625V85.4998H30.475V84.4998ZM16.125 84.9998V32.4998H15.125V84.9998H16.125ZM15.625 32.9998H39.625V31.9998H15.625V32.9998ZM38.725 60.0748C41.8351 60.0748 44.2705 59.4136 45.9464 58.008L45.3037 57.2417C43.8796 58.4361 41.7149 59.0748 38.725 59.0748V60.0748ZM45.9534 58.0018C47.6335 56.5386 48.45 54.4889 48.45 51.9248H47.45C47.45 54.2607 46.7166 56.011 45.2966 57.2478L45.9534 58.0018ZM48.45 51.9248C48.45 49.3607 47.6335 47.311 45.9534 45.8478L45.2966 46.6018C46.7166 47.8386 47.45 49.5889 47.45 51.9248H48.45ZM45.9534 45.8478C44.2771 44.3878 41.8389 43.6998 38.725 43.6998V44.6998C41.7111 44.6998 43.8729 45.3618 45.2966 46.6018L45.9534 45.8478ZM38.725 43.6998H30.475V44.6998H38.725V43.6998ZM29.975 44.1998V59.5748H30.975V44.1998H29.975ZM30.475 60.0748H38.725V59.0748H30.475V60.0748ZM110.328 73.5248H110.828V73.0248H110.328V73.5248ZM110.328 84.9998V85.4998H110.828V84.9998H110.328ZM68.1777 84.9998H67.6777V85.4998H68.1777V84.9998ZM68.1777 32.4998V31.9998H67.6777V32.4998H68.1777ZM109.353 32.4998H109.853V31.9998H109.353V32.4998ZM109.353 43.9748V44.4748H109.853V43.9748H109.353ZM82.8777 43.9748V43.4748H82.3777V43.9748H82.8777ZM82.8777 52.8248H82.3777V53.3248H82.8777V52.8248ZM106.203 52.8248H106.703V52.3248H106.203V52.8248ZM106.203 63.9248V64.4248H106.703V63.9248H106.203ZM82.8777 63.9248V63.4248H82.3777V63.9248H82.8777ZM82.8777 73.5248H82.3777V74.0248H82.8777V73.5248ZM109.828 73.5248V84.9998H110.828V73.5248H109.828ZM110.328 84.4998H68.1777V85.4998H110.328V84.4998ZM68.6777 84.9998V32.4998H67.6777V84.9998H68.6777ZM68.1777 32.9998H109.353V31.9998H68.1777V32.9998ZM108.853 32.4998V43.9748H109.853V32.4998H108.853ZM109.353 43.4748H82.8777V44.4748H109.353V43.4748ZM82.3777 43.9748V52.8248H83.3777V43.9748H82.3777ZM82.8777 53.3248H106.203V52.3248H82.8777V53.3248ZM105.703 52.8248V63.9248H106.703V52.8248H105.703ZM106.203 63.4248H82.8777V64.4248H106.203V63.4248ZM82.3777 63.9248V73.5248H83.3777V63.9248H82.3777ZM82.8777 74.0248H110.328V73.0248H82.8777V74.0248ZM149.763 57.6998L149.543 57.2506L148.506 57.7578L149.586 58.1673L149.763 57.6998ZM146.838 84.2498L146.996 84.7242L147.002 84.7222L146.838 84.2498ZM123.588 84.8498L123.475 85.3368L123.476 85.3371L123.588 84.8498ZM113.088 81.0248L112.628 80.8282L112.444 81.2588L112.862 81.4707L113.088 81.0248ZM117.513 70.6748L117.74 70.2295L117.264 69.9861L117.053 70.4782L117.513 70.6748ZM125.013 73.4498L124.894 73.9355L124.905 73.9379L125.013 73.4498ZM140.913 72.7748L141.137 73.2221L141.145 73.2177L140.913 72.7748ZM123.438 63.6248H122.938V64.1248H123.438V63.6248ZM123.438 52.7498V52.2498H122.938V52.7498H123.438ZM139.413 44.4248L139.169 44.8614L139.179 44.8667L139.413 44.4248ZM125.838 43.9748L125.957 44.4605L125.966 44.4581L125.838 43.9748ZM118.863 46.5998L118.397 46.7801L118.599 47.3022L119.095 47.0429L118.863 46.5998ZM114.513 35.3498L114.296 34.8994L113.88 35.0998L114.047 35.5301L114.513 35.3498ZM144.888 33.1748L144.726 33.6479L144.734 33.6504L144.888 33.1748ZM153.663 38.4248L153.298 38.7663L153.302 38.7704L153.663 38.4248ZM155.013 53.1998L154.597 52.9224L154.595 52.925L155.013 53.1998ZM149.586 58.1673C152.409 59.2381 154.602 60.835 156.188 62.9498L156.988 62.3498C155.274 60.0646 152.917 58.3615 149.94 57.2323L149.586 58.1673ZM156.188 62.9498C157.771 65.0599 158.563 67.4788 158.563 70.2248H159.563C159.563 67.2708 158.705 64.6397 156.988 62.3498L156.188 62.9498ZM158.563 70.2248C158.563 73.3495 157.51 76.054 155.395 78.3619L156.132 79.0377C158.416 76.5456 159.563 73.6001 159.563 70.2248H158.563ZM155.395 78.3619C153.262 80.6888 150.363 82.4987 146.674 83.7774L147.002 84.7222C150.813 83.4009 153.865 81.5108 156.132 79.0377L155.395 78.3619ZM146.68 83.7755C142.987 85.0063 138.917 85.6248 134.463 85.6248V86.6248C139.01 86.6248 143.189 85.9934 146.996 84.7242L146.68 83.7755ZM134.463 85.6248C130.953 85.6248 127.366 85.2046 123.7 84.3625L123.476 85.3371C127.21 86.195 130.873 86.6248 134.463 86.6248V85.6248ZM123.701 84.3628C120.091 83.522 116.629 82.2608 113.314 80.5789L112.862 81.4707C116.248 83.1888 119.785 84.4776 123.475 85.3368L123.701 84.3628ZM113.548 81.2214L117.973 70.8714L117.053 70.4782L112.628 80.8282L113.548 81.2214ZM117.286 71.1201C119.671 72.3383 122.208 73.2766 124.894 73.9355L125.132 72.9642C122.518 72.3231 120.055 71.4113 117.74 70.2295L117.286 71.1201ZM124.905 73.9379C127.637 74.545 130.273 74.8498 132.813 74.8498V73.8498C130.353 73.8498 127.79 73.5546 125.122 72.9617L124.905 73.9379ZM132.813 74.8498C136.161 74.8498 138.945 74.318 141.137 73.2221L140.689 72.3276C138.681 73.3317 136.065 73.8498 132.813 73.8498V74.8498ZM141.145 73.2177C143.367 72.0537 144.563 70.3794 144.563 68.1998H143.563C143.563 69.9202 142.659 71.2959 140.681 72.3319L141.145 73.2177ZM144.563 68.1998C144.563 66.4783 143.824 65.1596 142.363 64.3167L141.863 65.1829C143.002 65.84 143.563 66.8213 143.563 68.1998H144.563ZM142.363 64.3167C140.96 63.5071 139.113 63.1248 136.863 63.1248V64.1248C139.014 64.1248 140.667 64.4925 141.863 65.1829L142.363 64.3167ZM136.863 63.1248H123.438V64.1248H136.863V63.1248ZM123.938 63.6248V52.7498H122.938V63.6248H123.938ZM123.438 53.2498H135.663V52.2498H123.438V53.2498ZM135.663 53.2498C137.721 53.2498 139.39 52.8394 140.607 51.9542L140.019 51.1454C139.036 51.8602 137.605 52.2498 135.663 52.2498V53.2498ZM140.607 51.9542C141.835 51.0609 142.463 49.8362 142.463 48.3248H141.463C141.463 49.5134 140.991 50.4387 140.019 51.1454L140.607 51.9542ZM142.463 48.3248C142.463 47.3872 142.227 46.5402 141.744 45.8012C141.263 45.0654 140.554 44.4632 139.647 43.9829L139.179 44.8667C139.972 45.2864 140.538 45.7842 140.907 46.3484C141.274 46.9094 141.463 47.5624 141.463 48.3248H142.463ZM139.657 43.9883C137.859 42.9837 135.567 42.4998 132.813 42.4998V43.4998C135.459 43.4998 137.567 43.966 139.169 44.8614L139.657 43.9883ZM132.813 42.4998C130.564 42.4998 128.196 42.8321 125.71 43.4915L125.966 44.4581C128.381 43.8175 130.662 43.4998 132.813 43.4998V42.4998ZM125.719 43.4891C123.231 44.0986 120.868 44.9877 118.631 46.1567L119.095 47.0429C121.258 45.9119 123.546 45.0511 125.957 44.4605L125.719 43.4891ZM119.329 46.4195L114.979 35.1695L114.047 35.5301L118.397 46.7801L119.329 46.4195ZM114.73 35.8002C120.257 33.1353 126.332 31.7998 132.963 31.7998V30.7998C126.194 30.7998 119.969 32.1643 114.296 34.8994L114.73 35.8002ZM132.963 31.7998C137.214 31.7998 141.134 32.4177 144.726 33.6479L145.05 32.7018C141.342 31.432 137.312 30.7998 132.963 30.7998V31.7998ZM144.734 33.6504C148.372 34.8304 151.218 36.5411 153.298 38.7663L154.028 38.0834C151.808 35.7085 148.804 33.9192 145.042 32.6992L144.734 33.6504ZM153.302 38.7704C155.414 40.9784 156.463 43.58 156.463 46.5998H157.463C157.463 43.3195 156.312 40.4712 154.024 38.0792L153.302 38.7704ZM156.463 46.5998C156.463 48.9558 155.84 51.0584 154.597 52.9224L155.429 53.4771C156.786 51.4412 157.463 49.1438 157.463 46.5998H156.463ZM154.595 52.925C153.399 54.7427 151.721 56.1858 149.543 57.2506L149.983 58.149C152.305 57.0138 154.127 55.4569 155.431 53.4746L154.595 52.925ZM214.735 32.4998L215.176 32.736L215.571 31.9998H214.735V32.4998ZM192.985 73.0748L192.545 72.8386L192.543 72.8411L192.985 73.0748ZM184.51 82.9748L184.232 82.5597L184.229 82.5617L184.51 82.9748ZM164.335 84.3998L163.859 84.2466L163.716 84.6931L164.152 84.865L164.335 84.3998ZM167.86 73.4498L168.001 72.9699L167.534 72.8332L167.384 73.2966L167.86 73.4498ZM176.935 73.3748L176.689 72.9394L176.681 72.9443L176.935 73.3748ZM180.085 70.2998L180.499 70.5806L180.67 70.3294L180.525 70.0623L180.085 70.2998ZM159.685 32.4998V31.9998H158.847L159.245 32.7373L159.685 32.4998ZM175.36 32.4998L175.811 32.2826L175.674 31.9998H175.36V32.4998ZM187.585 57.8498L187.135 58.067L187.577 58.9841L188.033 58.0734L187.585 57.8498ZM200.26 32.4998V31.9998H199.951L199.813 32.2762L200.26 32.4998ZM214.295 32.2636L192.545 72.8386L193.426 73.311L215.176 32.736L214.295 32.2636ZM192.543 72.8411C190.274 77.1339 187.5 80.3648 184.232 82.5597L184.789 83.3899C188.221 81.0848 191.097 77.7157 193.427 73.3085L192.543 72.8411ZM184.229 82.5617C181.011 84.7558 177.484 85.8498 173.635 85.8498V86.8498C177.687 86.8498 181.41 85.6938 184.792 83.3879L184.229 82.5617ZM173.635 85.8498C170.81 85.8498 167.773 85.2166 164.519 83.9346L164.152 84.865C167.498 86.183 170.66 86.8498 173.635 86.8498V85.8498ZM164.811 84.553L168.336 73.603L167.384 73.2966L163.859 84.2466L164.811 84.553ZM167.72 73.9297C169.796 74.5373 171.596 74.8498 173.11 74.8498V73.8498C171.725 73.8498 170.025 73.5623 168.001 72.9699L167.72 73.9297ZM173.11 74.8498C174.638 74.8498 176.003 74.5067 177.19 73.8053L176.681 72.9443C175.668 73.5429 174.483 73.8498 173.11 73.8498V74.8498ZM177.181 73.8101C178.415 73.1131 179.518 72.027 180.499 70.5806L179.672 70.019C178.753 71.3726 177.756 72.3364 176.689 72.9394L177.181 73.8101ZM180.525 70.0623L160.125 32.2623L159.245 32.7373L179.645 70.5373L180.525 70.0623ZM159.685 32.9998H175.36V31.9998H159.685V32.9998ZM174.91 32.717L187.135 58.067L188.036 57.6326L175.811 32.2826L174.91 32.717ZM188.033 58.0734L200.708 32.7234L199.813 32.2762L187.138 57.6262L188.033 58.0734ZM200.26 32.9998H214.735V31.9998H200.26V32.9998ZM265.949 32.4998H266.449V31.9998H265.949V32.4998ZM265.949 84.9998V85.4998H266.449V84.9998H265.949ZM251.324 84.9998H250.824V85.4998H251.324V84.9998ZM251.324 44.2748H251.824V43.7748H251.324V44.2748ZM236.249 44.2748V43.7748H235.766L235.749 44.2573L236.249 44.2748ZM234.074 71.1248L233.585 71.0207L233.584 71.0257L234.074 71.1248ZM229.124 82.0748L229.491 82.4137L229.495 82.4101L229.124 82.0748ZM212.399 84.9998L211.9 84.9659L211.871 85.3874L212.282 85.486L212.399 84.9998ZM213.224 72.8498L213.336 72.3626L212.765 72.2307L212.725 72.8159L213.224 72.8498ZM221.999 64.2998L222.492 64.3805V64.3791L221.999 64.2998ZM222.899 53.4248L222.399 53.4069V53.408L222.899 53.4248ZM223.649 32.4998V31.9998H223.166L223.149 32.4819L223.649 32.4998ZM265.449 32.4998V84.9998H266.449V32.4998H265.449ZM265.949 84.4998H251.324V85.4998H265.949V84.4998ZM251.824 84.9998V44.2748H250.824V84.9998H251.824ZM251.324 43.7748H236.249V44.7748H251.324V43.7748ZM235.749 44.2573L235.449 52.8073L236.448 52.8423L236.748 44.2923L235.749 44.2573ZM235.449 52.8073C235.199 60.2923 234.576 66.3608 233.585 71.0207L234.563 71.2289C235.571 66.4888 236.198 60.3573 236.448 52.8423L235.449 52.8073ZM233.584 71.0257C232.645 75.6689 231.024 79.2263 228.753 81.7395L229.495 82.4101C231.923 79.7233 233.602 75.9807 234.564 71.2239L233.584 71.0257ZM228.756 81.736C226.523 84.1595 223.345 85.3998 219.149 85.3998V86.3998C223.552 86.3998 227.025 85.0902 229.491 82.4137L228.756 81.736ZM219.149 85.3998C217.197 85.3998 214.987 85.1069 212.515 84.5136L212.282 85.486C214.81 86.0927 217.1 86.3998 219.149 86.3998V85.3998ZM212.897 85.0337L213.722 72.8837L212.725 72.8159L211.9 84.9659L212.897 85.0337ZM213.111 73.337C213.8 73.4959 214.513 73.5748 215.249 73.5748V72.5748C214.585 72.5748 213.947 72.5037 213.336 72.3626L213.111 73.337ZM215.249 73.5748C217.356 73.5748 219.015 72.7242 220.163 71.0302L219.335 70.4694C218.382 71.8754 217.041 72.5748 215.249 72.5748V73.5748ZM220.163 71.0302C221.268 69.3982 222.036 67.1702 222.492 64.3805L221.505 64.2191C221.062 66.9294 220.329 69.0014 219.335 70.4694L220.163 71.0302ZM222.492 64.3791C222.947 61.5503 223.248 57.9022 223.398 53.4416L222.399 53.408C222.249 57.8474 221.95 61.4493 221.505 64.2205L222.492 64.3791ZM223.398 53.4427L224.148 32.5177L223.149 32.4819L222.399 53.4069L223.398 53.4427ZM223.649 32.9998H265.949V31.9998H223.649V32.9998ZM317.379 53.5748L317.06 53.9598L317.063 53.9625L317.379 53.5748ZM275.679 84.9998H275.179V85.4998H275.679V84.9998ZM275.679 32.4998V31.9998H275.179V32.4998H275.679ZM290.304 32.4998H290.804V31.9998H290.304V32.4998ZM290.304 49.2248H289.804V49.7248H290.304V49.2248ZM305.454 72.3248L305.119 71.9531L305.113 71.9589L305.454 72.3248ZM290.304 59.7998V59.2998H289.804V59.7998H290.304ZM290.304 74.3498H289.804V74.8498H290.304V74.3498ZM302.454 49.7248C308.835 49.7248 313.68 51.1599 317.06 53.9598L317.698 53.1898C314.077 50.1897 308.972 48.7248 302.454 48.7248V49.7248ZM317.063 53.9625C320.418 56.6942 322.129 60.7838 322.129 66.3248H323.129C323.129 60.5658 321.34 56.1554 317.694 53.1871L317.063 53.9625ZM322.129 66.3248C322.129 72.2581 320.223 76.7274 316.462 79.8133L317.096 80.5863C321.135 77.2722 323.129 72.4915 323.129 66.3248H322.129ZM316.462 79.8133C312.68 82.9164 307.381 84.4998 300.504 84.4998V85.4998C307.526 85.4998 313.078 83.8832 317.096 80.5863L316.462 79.8133ZM300.504 84.4998H275.679V85.4998H300.504V84.4998ZM276.179 84.9998V32.4998H275.179V84.9998H276.179ZM275.679 32.9998H290.304V31.9998H275.679V32.9998ZM289.804 32.4998V49.2248H290.804V32.4998H289.804ZM290.304 49.7248H302.454V48.7248H290.304V49.7248ZM299.529 74.8498C302.121 74.8498 304.229 74.1478 305.794 72.6907L305.113 71.9589C303.778 73.2018 301.937 73.8498 299.529 73.8498V74.8498ZM305.788 72.6964C307.416 71.2316 308.204 69.1836 308.204 66.6248H307.204C307.204 68.966 306.492 70.7179 305.119 71.9531L305.788 72.6964ZM308.204 66.6248C308.204 64.2466 307.487 62.3803 305.98 61.1222C304.491 59.8786 302.311 59.2998 299.529 59.2998V60.2998C302.196 60.2998 304.104 60.8585 305.34 61.8899C306.558 62.9068 307.204 64.453 307.204 66.6248H308.204ZM299.529 59.2998H290.304V60.2998H299.529V59.2998ZM289.804 59.7998V74.3498H290.804V59.7998H289.804ZM290.304 74.8498H299.529V73.8498H290.304V74.8498ZM365.112 44.2748V44.7748H365.612V44.2748H365.112ZM349.062 44.2748V43.7748H348.562V44.2748H349.062ZM349.062 84.9998V85.4998H349.562V84.9998H349.062ZM334.437 84.9998H333.937V85.4998H334.437V84.9998ZM334.437 44.2748H334.937V43.7748H334.437V44.2748ZM318.312 44.2748H317.812V44.7748H318.312V44.2748ZM318.312 32.4998V31.9998H317.812V32.4998H318.312ZM365.112 32.4998H365.612V31.9998H365.112V32.4998ZM365.112 43.7748H349.062V44.7748H365.112V43.7748ZM348.562 44.2748V84.9998H349.562V44.2748H348.562ZM349.062 84.4998H334.437V85.4998H349.062V84.4998ZM334.937 84.9998V44.2748H333.937V84.9998H334.937ZM334.437 43.7748H318.312V44.7748H334.437V43.7748ZM318.812 44.2748V32.4998H317.812V44.2748H318.812ZM318.312 32.9998H365.112V31.9998H318.312V32.9998ZM364.612 32.4998V44.2748H365.612V32.4998H364.612ZM404.045 74.7998L404.509 74.6123L404.382 74.2998H404.045V74.7998ZM381.845 74.7998V74.2998H381.508L381.382 74.6123L381.845 74.7998ZM377.72 84.9998V85.4998H378.057L378.184 85.1873L377.72 84.9998ZM362.57 84.9998L362.113 84.7979L361.803 85.4998H362.57V84.9998ZM385.745 32.4998V31.9998H385.419L385.288 32.2979L385.745 32.4998ZM400.37 32.4998L400.827 32.2973L400.696 31.9998H400.37V32.4998ZM423.62 84.9998V85.4998H424.389L424.077 84.7973L423.62 84.9998ZM408.17 84.9998L407.707 85.1873L407.833 85.4998H408.17V84.9998ZM399.695 63.8498V64.3498H400.435L400.159 63.6634L399.695 63.8498ZM392.945 47.0498L393.409 46.8634L392.945 45.7087L392.481 46.8634L392.945 47.0498ZM386.195 63.8498L385.731 63.6634L385.456 64.3498H386.195V63.8498ZM404.045 74.2998H381.845V75.2998H404.045V74.2998ZM381.382 74.6123L377.257 84.8123L378.184 85.1873L382.309 74.9873L381.382 74.6123ZM377.72 84.4998H362.57V85.4998H377.72V84.4998ZM363.028 85.2017L386.203 32.7017L385.288 32.2979L362.113 84.7979L363.028 85.2017ZM385.745 32.9998H400.37V31.9998H385.745V32.9998ZM399.913 32.7023L423.163 85.2023L424.077 84.7973L400.827 32.2973L399.913 32.7023ZM423.62 84.4998H408.17V85.4998H423.62V84.4998ZM408.634 84.8123L404.509 74.6123L403.582 74.9873L407.707 85.1873L408.634 84.8123ZM400.159 63.6634L393.409 46.8634L392.481 47.2362L399.231 64.0362L400.159 63.6634ZM392.481 46.8634L385.731 63.6634L386.659 64.0362L393.409 47.2362L392.481 46.8634ZM386.195 64.3498H399.695V63.3498H386.195V64.3498ZM467.8 44.2748V44.7748H468.3V44.2748H467.8ZM451.75 44.2748V43.7748H451.25V44.2748H451.75ZM451.75 84.9998V85.4998H452.25V84.9998H451.75ZM437.125 84.9998H436.625V85.4998H437.125V84.9998ZM437.125 44.2748H437.625V43.7748H437.125V44.2748ZM421 44.2748H420.5V44.7748H421V44.2748ZM421 32.4998V31.9998H420.5V32.4998H421ZM467.8 32.4998H468.3V31.9998H467.8V32.4998ZM467.8 43.7748H451.75V44.7748H467.8V43.7748ZM451.25 44.2748V84.9998H452.25V44.2748H451.25ZM451.75 84.4998H437.125V85.4998H451.75V84.4998ZM437.625 84.9998V44.2748H436.625V84.9998H437.625ZM437.125 43.7748H421V44.7748H437.125V43.7748ZM421.5 44.2748V32.4998H420.5V44.2748H421.5ZM421 32.9998H467.8V31.9998H421V32.9998ZM467.3 32.4998V44.2748H468.3V32.4998H467.3ZM514.846 53.5748L514.526 53.9598L514.53 53.9625L514.846 53.5748ZM473.146 84.9998H472.646V85.4998H473.146V84.9998ZM473.146 32.4998V31.9998H472.646V32.4998H473.146ZM487.771 32.4998H488.271V31.9998H487.771V32.4998ZM487.771 49.2248H487.271V49.7248H487.771V49.2248ZM502.921 72.3248L502.586 71.9531L502.58 71.9589L502.921 72.3248ZM487.771 59.7998V59.2998H487.271V59.7998H487.771ZM487.771 74.3498H487.271V74.8498H487.771V74.3498ZM525.871 32.4998V31.9998H525.371V32.4998H525.871ZM540.496 32.4998H540.996V31.9998H540.496V32.4998ZM540.496 84.9998V85.4998H540.996V84.9998H540.496ZM525.871 84.9998H525.371V85.4998H525.871V84.9998ZM499.921 49.7248C506.302 49.7248 511.147 51.1599 514.527 53.9598L515.165 53.1898C511.544 50.1897 506.439 48.7248 499.921 48.7248V49.7248ZM514.53 53.9625C517.885 56.6942 519.596 60.7838 519.596 66.3248H520.596C520.596 60.5658 518.807 56.1554 515.161 53.1871L514.53 53.9625ZM519.596 66.3248C519.596 72.2581 517.689 76.7274 513.928 79.8133L514.563 80.5863C518.602 77.2722 520.596 72.4915 520.596 66.3248H519.596ZM513.928 79.8133C510.146 82.9164 504.848 84.4998 497.971 84.4998V85.4998C504.993 85.4998 510.545 83.8832 514.563 80.5863L513.928 79.8133ZM497.971 84.4998H473.146V85.4998H497.971V84.4998ZM473.646 84.9998V32.4998H472.646V84.9998H473.646ZM473.146 32.9998H487.771V31.9998H473.146V32.9998ZM487.271 32.4998V49.2248H488.271V32.4998H487.271ZM487.771 49.7248H499.921V48.7248H487.771V49.7248ZM496.996 74.8498C499.587 74.8498 501.696 74.1478 503.261 72.6907L502.58 71.9589C501.245 73.2018 499.404 73.8498 496.996 73.8498V74.8498ZM503.255 72.6964C504.883 71.2316 505.671 69.1836 505.671 66.6248H504.671C504.671 68.966 503.958 70.7179 502.586 71.9531L503.255 72.6964ZM505.671 66.6248C505.671 64.2466 504.954 62.3803 503.447 61.1222C501.958 59.8786 499.778 59.2998 496.996 59.2998V60.2998C499.663 60.2998 501.571 60.8585 502.806 61.8899C504.024 62.9068 504.671 64.453 504.671 66.6248H505.671ZM496.996 59.2998H487.771V60.2998H496.996V59.2998ZM487.271 59.7998V74.3498H488.271V59.7998H487.271ZM487.771 74.8498H496.996V73.8498H487.771V74.8498ZM525.871 32.9998H540.496V31.9998H525.871V32.9998ZM539.996 32.4998V84.9998H540.996V32.4998H539.996ZM540.496 84.4998H525.871V85.4998H540.496V84.4998ZM526.371 84.9998V32.4998H525.371V84.9998H526.371Z" fill="#CBCBCB"/>
</g>
<defs>
<clipPath id="clip0_7_227">
<rect width="526" height="57" fill="white" transform="translate(15 30)"/>
</clipPath>
</defs>
</svg>
