<svg width="1300" height="623" viewBox="0 0 1300 623" fill="none" xmlns="http://www.w3.org/2000/svg">
<g clip-path="url(#clip0_7_413)">
<g clip-path="url(#clip1_7_413)">
<path d="M911.875 27.5502L911.651 27.103L910.557 27.6503L911.722 28.0261L911.875 27.5502ZM918.925 32.2002L918.527 32.5033L918.532 32.5091L918.925 32.2002ZM915.925 51.0252L916.221 51.4279L916.222 51.4272L915.925 51.0252ZM873.625 55.0002H873.125V55.5002H873.625V55.0002ZM873.625 2.5002V2.0002H873.125V2.5002H873.625ZM913.75 6.1002L913.464 6.51071L913.471 6.51531L913.75 6.1002ZM917.125 22.9002L916.704 22.6303L916.699 22.6381L917.125 22.9002ZM888.25 23.5002H887.75V24.0002H888.25V23.5002ZM888.25 13.1502V12.6502H887.75V13.1502H888.25ZM888.25 33.5502V33.0502H887.75V33.5502H888.25ZM888.25 44.3502H887.75V44.8502H888.25V44.3502ZM911.722 28.0261C914.747 29.0021 917.002 30.5018 918.527 32.5033L919.323 31.8972C917.648 29.6987 915.203 28.0983 912.028 27.0743L911.722 28.0261ZM918.532 32.5091C920.102 34.5073 920.9 36.9934 920.9 40.0002H921.9C921.9 36.807 921.048 34.0931 919.318 31.8913L918.532 32.5091ZM920.9 40.0002C920.9 44.4962 919.147 48.0202 915.628 50.6232L916.222 51.4272C920.003 48.6302 921.9 44.8042 921.9 40.0002H920.9ZM915.629 50.6225C912.147 53.1852 907.143 54.5002 900.55 54.5002V55.5002C907.257 55.5002 912.503 54.1652 916.221 51.4279L915.629 50.6225ZM900.55 54.5002H873.625V55.5002H900.55V54.5002ZM874.125 55.0002V2.5002H873.125V55.0002H874.125ZM873.625 3.0002H899.125V2.0002H873.625V3.0002ZM899.125 3.0002C905.371 3.0002 910.13 4.19146 913.464 6.51071L914.035 5.68975C910.469 3.209 905.479 2.0002 899.125 2.0002V3.0002ZM913.471 6.51531C916.828 8.76895 918.5 11.9604 918.5 16.1502H919.5C919.5 11.64 917.672 8.13144 914.029 5.68509L913.471 6.51531ZM918.5 16.1502C918.5 18.6146 917.897 20.7688 916.704 22.6303L917.546 23.17C918.853 21.1315 919.5 18.7858 919.5 16.1502H918.5ZM916.699 22.6381C915.554 24.4993 913.879 25.9894 911.651 27.103L912.099 27.9974C914.471 26.811 916.296 25.2011 917.551 23.1622L916.699 22.6381ZM888.25 24.0002H897.7V23.0002H888.25V24.0002ZM897.7 24.0002C899.856 24.0002 901.565 23.5595 902.742 22.5928C903.938 21.6107 904.5 20.1561 904.5 18.3252H903.5C903.5 19.9443 903.012 21.0772 902.108 21.8201C901.184 22.5784 899.744 23.0002 897.7 23.0002V24.0002ZM904.5 18.3252C904.5 16.4943 903.938 15.0397 902.742 14.0576C901.565 13.0909 899.856 12.6502 897.7 12.6502V13.6502C899.744 13.6502 901.184 14.072 902.108 14.8303C903.012 15.5732 903.5 16.7061 903.5 18.3252H904.5ZM897.7 12.6502H888.25V13.6502H897.7V12.6502ZM887.75 13.1502V23.5002H888.75V13.1502H887.75ZM899.95 44.8502C902.159 44.8502 903.909 44.3832 905.111 43.3626C906.329 42.3288 906.9 40.8007 906.9 38.8752H905.9C905.9 40.5997 905.396 41.8091 904.464 42.6003C903.516 43.4047 902.041 43.8502 899.95 43.8502V44.8502ZM906.9 38.8752C906.9 36.9952 906.326 35.5033 905.106 34.4959C903.904 33.5036 902.156 33.0502 899.95 33.0502V34.0502C902.044 34.0502 903.521 34.4843 904.469 35.267C905.399 36.0346 905.9 37.2052 905.9 38.8752H906.9ZM899.95 33.0502H888.25V34.0502H899.95V33.0502ZM887.75 33.5502V44.3502H888.75V33.5502H887.75ZM888.25 44.8502H899.95V43.8502H888.25V44.8502ZM938.735 52.5252L938.5 52.9662L938.502 52.9673L938.735 52.5252ZM928.311 42.7752L927.882 43.0332L927.884 43.037L928.311 42.7752ZM928.311 14.7252L927.884 14.4634L927.882 14.4672L928.311 14.7252ZM938.735 4.9752L938.502 4.53306L938.5 4.53416L938.735 4.9752ZM968.66 4.9752L968.425 5.41624L968.427 5.41733L968.66 4.9752ZM979.086 14.7252L978.657 14.9832L978.66 14.987L979.086 14.7252ZM979.086 42.7752L978.66 42.5134L978.657 42.5172L979.086 42.7752ZM968.66 52.5252L968.427 52.0831L968.425 52.0842L968.66 52.5252ZM966.035 36.6252L966.473 36.868L966.475 36.864L966.035 36.6252ZM966.035 20.9502L965.596 21.189L965.599 21.193L966.035 20.9502ZM941.436 20.9502L941.873 21.193L941.875 21.189L941.436 20.9502ZM941.436 36.6252L940.996 36.864L940.998 36.868L941.436 36.6252ZM953.735 55.5502C948.258 55.5502 943.34 54.3913 938.969 52.0831L938.502 52.9673C943.031 55.3591 948.113 56.5502 953.735 56.5502V55.5502ZM938.971 52.0842C934.647 49.7749 931.239 46.586 928.737 42.5134L927.884 43.037C930.482 47.2644 934.024 50.5755 938.5 52.9662L938.971 52.0842ZM928.739 42.5172C926.289 38.4508 925.061 33.8662 925.061 28.7502H924.061C924.061 34.0342 925.332 38.7996 927.882 43.0332L928.739 42.5172ZM925.061 28.7502C925.061 23.6342 926.289 19.0496 928.739 14.9832L927.882 14.4672C925.332 18.7008 924.061 23.4662 924.061 28.7502H925.061ZM928.737 14.987C931.239 10.9144 934.647 7.72549 938.971 5.41623L938.5 4.53416C934.024 6.92491 930.482 10.236 927.884 14.4634L928.737 14.987ZM938.969 5.41733C943.34 3.10913 948.258 1.9502 953.735 1.9502V0.950195C948.113 0.950195 943.031 2.14127 938.502 4.53306L938.969 5.41733ZM953.735 1.9502C959.213 1.9502 964.105 3.10916 968.425 5.41624L968.896 4.53416C964.416 2.14124 959.358 0.950195 953.735 0.950195V1.9502ZM968.427 5.41733C972.8 7.72655 976.206 10.9143 978.657 14.9832L979.514 14.4672C976.965 10.2361 973.421 6.92384 968.894 4.53306L968.427 5.41733ZM978.66 14.987C981.158 19.0529 982.411 23.6361 982.411 28.7502H983.411C983.411 23.4643 982.113 18.6975 979.512 14.4634L978.66 14.987ZM982.411 28.7502C982.411 33.8643 981.158 38.4475 978.66 42.5134L979.512 43.037C982.113 38.8029 983.411 34.0361 983.411 28.7502H982.411ZM978.657 42.5172C976.206 46.5861 972.8 49.7738 968.427 52.0831L968.894 52.9673C973.421 50.5766 976.965 47.2643 979.514 43.0332L978.657 42.5172ZM968.425 52.0842C964.105 54.3912 959.213 55.5502 953.735 55.5502V56.5502C959.358 56.5502 964.416 55.3592 968.896 52.9662L968.425 52.0842ZM953.735 44.2502C956.468 44.2502 958.955 43.6047 961.187 42.3075L960.684 41.4429C958.616 42.6457 956.303 43.2502 953.735 43.2502V44.2502ZM961.187 42.3075C963.417 41.0106 965.181 39.1939 966.473 36.868L965.599 36.3824C964.391 38.5565 962.754 40.2398 960.684 41.4429L961.187 42.3075ZM966.475 36.864C967.77 34.4818 968.41 31.7729 968.41 28.7502H967.41C967.41 31.6275 966.802 34.1686 965.596 36.3864L966.475 36.864ZM968.41 28.7502C968.41 25.7278 967.77 23.0419 966.473 20.7074L965.599 21.193C966.802 23.3585 967.41 25.8726 967.41 28.7502H968.41ZM966.475 20.7114C965.184 18.3354 963.42 16.4915 961.187 15.1929L960.684 16.0575C962.751 17.2589 964.388 18.965 965.596 21.189L966.475 20.7114ZM961.187 15.1929C958.955 13.8957 956.468 13.2502 953.735 13.2502V14.2502C956.303 14.2502 958.616 14.8547 960.684 16.0575L961.187 15.1929ZM953.735 13.2502C951.003 13.2502 948.516 13.8957 946.284 15.1929L946.787 16.0575C948.856 14.8547 951.168 14.2502 953.735 14.2502V13.2502ZM946.284 15.1929C944.051 16.4915 942.288 18.3354 940.996 20.7114L941.875 21.189C943.084 18.965 944.72 17.2589 946.787 16.0575L946.284 15.1929ZM940.998 20.7074C939.701 23.0419 939.061 25.7278 939.061 28.7502H940.061C940.061 25.8726 940.67 23.3585 941.873 21.193L940.998 20.7074ZM939.061 28.7502C939.061 31.7729 939.702 34.4818 940.996 36.864L941.875 36.3864C940.67 34.1686 940.061 31.6275 940.061 28.7502H939.061ZM940.998 36.868C942.291 39.1939 944.054 41.0106 946.284 42.3075L946.787 41.4429C944.718 40.2398 943.08 38.5565 941.873 36.3824L940.998 36.868ZM946.284 42.3075C948.516 43.6047 951.003 44.2502 953.735 44.2502V43.2502C951.168 43.2502 948.856 42.6457 946.787 41.4429L946.284 42.3075ZM1038.63 2.5002H1039.13V2.0002H1038.63V2.5002ZM1038.63 55.0002V55.5002H1039.13V55.0002H1038.63ZM1023.93 55.0002H1023.43V55.5002H1023.93V55.0002ZM1023.93 14.2752H1024.43V13.7752H1023.93V14.2752ZM1003.98 14.2752V13.7752H1003.48V14.2752H1003.98ZM1003.98 55.0002V55.5002H1004.48V55.0002H1003.98ZM989.351 55.0002H988.851V55.5002H989.351V55.0002ZM989.351 2.5002V2.0002H988.851V2.5002H989.351ZM1038.13 2.5002V55.0002H1039.13V2.5002H1038.13ZM1038.63 54.5002H1023.93V55.5002H1038.63V54.5002ZM1024.43 55.0002V14.2752H1023.43V55.0002H1024.43ZM1023.93 13.7752H1003.98V14.7752H1023.93V13.7752ZM1003.48 14.2752V55.0002H1004.48V14.2752H1003.48ZM1003.98 54.5002H989.351V55.5002H1003.98V54.5002ZM989.851 55.0002V2.5002H988.851V55.0002H989.851ZM989.351 3.0002H1038.63V2.0002H989.351V3.0002ZM1084.72 4.9002L1084.52 5.35497L1084.52 5.35737L1084.72 4.9002ZM1092.82 11.6502L1092.4 11.9209L1092.4 11.9242L1092.82 11.6502ZM1084.72 38.9502L1084.93 39.4074L1084.93 39.4049L1084.72 38.9502ZM1063.2 41.2752V40.7752H1062.7V41.2752H1063.2ZM1063.2 55.0002V55.5002H1063.7V55.0002H1063.2ZM1048.35 55.0002H1047.85V55.5002H1048.35V55.0002ZM1048.35 2.5002V2.0002H1047.85V2.5002H1048.35ZM1078.35 27.6252L1078.67 28.0084L1078.68 28.0022L1078.35 27.6252ZM1063.2 14.2002V13.7002H1062.7V14.2002H1063.2ZM1063.2 29.5752H1062.7V30.0752H1063.2V29.5752ZM1072.35 3.0002C1077.04 3.0002 1081.09 3.79094 1084.52 5.35497L1084.93 4.44546C1081.35 2.8095 1077.15 2.0002 1072.35 2.0002V3.0002ZM1084.52 5.35737C1087.94 6.87158 1090.56 9.06047 1092.4 11.9209L1093.24 11.3795C1091.29 8.33993 1088.51 6.02881 1084.93 4.44302L1084.52 5.35737ZM1092.4 11.9242C1094.24 14.7318 1095.17 18.0586 1095.17 21.9252H1096.17C1096.17 17.8918 1095.2 14.3686 1093.24 11.3762L1092.4 11.9242ZM1095.17 21.9252C1095.17 25.7918 1094.24 29.1186 1092.4 31.9262L1093.24 32.4742C1095.2 29.4818 1096.17 25.9586 1096.17 21.9252H1095.17ZM1092.4 31.9262C1090.56 34.7388 1087.94 36.9302 1084.52 38.4955L1084.93 39.4049C1088.51 37.7702 1091.29 35.4616 1093.24 32.4742L1092.4 31.9262ZM1084.52 38.493C1081.1 40.0089 1077.04 40.7752 1072.35 40.7752V41.7752C1077.15 41.7752 1081.35 40.9915 1084.93 39.4074L1084.52 38.493ZM1072.35 40.7752H1063.2V41.7752H1072.35V40.7752ZM1062.7 41.2752V55.0002H1063.7V41.2752H1062.7ZM1063.2 54.5002H1048.35V55.5002H1063.2V54.5002ZM1048.85 55.0002V2.5002H1047.85V55.0002H1048.85ZM1048.35 3.0002H1072.35V2.0002H1048.35V3.0002ZM1071.45 30.0752C1074.56 30.0752 1076.99 29.414 1078.67 28.0084L1078.03 27.2421C1076.6 28.4365 1074.44 29.0752 1071.45 29.0752V30.0752ZM1078.68 28.0022C1080.36 26.539 1081.17 24.4893 1081.17 21.9252H1080.17C1080.17 24.2611 1079.44 26.0114 1078.02 27.2482L1078.68 28.0022ZM1081.17 21.9252C1081.17 19.3611 1080.36 17.3114 1078.68 15.8482L1078.02 16.6022C1079.44 17.839 1080.17 19.5893 1080.17 21.9252H1081.17ZM1078.68 15.8482C1077 14.3882 1074.56 13.7002 1071.45 13.7002V14.7002C1074.43 14.7002 1076.6 15.3622 1078.02 16.6022L1078.68 15.8482ZM1071.45 13.7002H1063.2V14.7002H1071.45V13.7002ZM1062.7 14.2002V29.5752H1063.7V14.2002H1062.7ZM1063.2 30.0752H1071.45V29.0752H1063.2V30.0752ZM1112.43 52.5252L1112.2 52.9662L1112.2 52.9673L1112.43 52.5252ZM1102.01 42.7752L1101.58 43.0332L1101.58 43.037L1102.01 42.7752ZM1102.01 14.7252L1101.58 14.4634L1101.58 14.4672L1102.01 14.7252ZM1112.43 4.9752L1112.2 4.53306L1112.2 4.53416L1112.43 4.9752ZM1142.36 4.9752L1142.12 5.41624L1142.12 5.41733L1142.36 4.9752ZM1152.78 14.7252L1152.36 14.9832L1152.36 14.987L1152.78 14.7252ZM1152.78 42.7752L1152.36 42.5134L1152.36 42.5172L1152.78 42.7752ZM1142.36 52.5252L1142.12 52.0831L1142.12 52.0842L1142.36 52.5252ZM1139.73 36.6252L1140.17 36.868L1140.17 36.864L1139.73 36.6252ZM1139.73 20.9502L1139.29 21.189L1139.3 21.193L1139.73 20.9502ZM1115.13 20.9502L1115.57 21.193L1115.57 21.189L1115.13 20.9502ZM1115.13 36.6252L1114.69 36.864L1114.7 36.868L1115.13 36.6252ZM1127.43 55.5502C1121.96 55.5502 1117.04 54.3913 1112.67 52.0831L1112.2 52.9673C1116.73 55.3591 1121.81 56.5502 1127.43 56.5502V55.5502ZM1112.67 52.0842C1108.35 49.7749 1104.94 46.586 1102.43 42.5134L1101.58 43.037C1104.18 47.2644 1107.72 50.5755 1112.2 52.9662L1112.67 52.0842ZM1102.44 42.5172C1099.99 38.4508 1098.76 33.8662 1098.76 28.7502H1097.76C1097.76 34.0342 1099.03 38.7996 1101.58 43.0332L1102.44 42.5172ZM1098.76 28.7502C1098.76 23.6342 1099.99 19.0496 1102.44 14.9832L1101.58 14.4672C1099.03 18.7008 1097.76 23.4662 1097.76 28.7502H1098.76ZM1102.43 14.987C1104.94 10.9144 1108.35 7.72549 1112.67 5.41623L1112.2 4.53416C1107.72 6.92491 1104.18 10.236 1101.58 14.4634L1102.43 14.987ZM1112.67 5.41733C1117.04 3.10913 1121.96 1.9502 1127.43 1.9502V0.950195C1121.81 0.950195 1116.73 2.14127 1112.2 4.53306L1112.67 5.41733ZM1127.43 1.9502C1132.91 1.9502 1137.8 3.10916 1142.12 5.41624L1142.59 4.53416C1138.11 2.14124 1133.06 0.950195 1127.43 0.950195V1.9502ZM1142.12 5.41733C1146.5 7.72655 1149.9 10.9143 1152.36 14.9832L1153.21 14.4672C1150.66 10.2361 1147.12 6.92384 1142.59 4.53306L1142.12 5.41733ZM1152.36 14.987C1154.86 19.0529 1156.11 23.6361 1156.11 28.7502H1157.11C1157.11 23.4643 1155.81 18.6975 1153.21 14.4634L1152.36 14.987ZM1156.11 28.7502C1156.11 33.8643 1154.86 38.4475 1152.36 42.5134L1153.21 43.037C1155.81 38.8029 1157.11 34.0361 1157.11 28.7502H1156.11ZM1152.36 42.5172C1149.9 46.5861 1146.5 49.7738 1142.12 52.0831L1142.59 52.9673C1147.12 50.5766 1150.66 47.2643 1153.21 43.0332L1152.36 42.5172ZM1142.12 52.0842C1137.8 54.3912 1132.91 55.5502 1127.43 55.5502V56.5502C1133.06 56.5502 1138.11 55.3592 1142.59 52.9662L1142.12 52.0842ZM1127.43 44.2502C1130.17 44.2502 1132.65 43.6047 1134.89 42.3075L1134.38 41.4429C1132.31 42.6457 1130 43.2502 1127.43 43.2502V44.2502ZM1134.89 42.3075C1137.12 41.0106 1138.88 39.1939 1140.17 36.868L1139.3 36.3824C1138.09 38.5565 1136.45 40.2398 1134.38 41.4429L1134.89 42.3075ZM1140.17 36.864C1141.47 34.4818 1142.11 31.7729 1142.11 28.7502H1141.11C1141.11 31.6275 1140.5 34.1686 1139.29 36.3864L1140.17 36.864ZM1142.11 28.7502C1142.11 25.7278 1141.47 23.0419 1140.17 20.7074L1139.3 21.193C1140.5 23.3585 1141.11 25.8726 1141.11 28.7502H1142.11ZM1140.17 20.7114C1138.88 18.3354 1137.12 16.4915 1134.89 15.1929L1134.38 16.0575C1136.45 17.2589 1138.09 18.965 1139.29 21.189L1140.17 20.7114ZM1134.89 15.1929C1132.65 13.8957 1130.17 13.2502 1127.43 13.2502V14.2502C1130 14.2502 1132.31 14.8547 1134.38 16.0575L1134.89 15.1929ZM1127.43 13.2502C1124.7 13.2502 1122.21 13.8957 1119.98 15.1929L1120.49 16.0575C1122.55 14.8547 1124.87 14.2502 1127.43 14.2502V13.2502ZM1119.98 15.1929C1117.75 16.4915 1115.99 18.3354 1114.69 20.7114L1115.57 21.189C1116.78 18.965 1118.42 17.2589 1120.49 16.0575L1119.98 15.1929ZM1114.7 20.7074C1113.4 23.0419 1112.76 25.7278 1112.76 28.7502H1113.76C1113.76 25.8726 1114.37 23.3585 1115.57 21.193L1114.7 20.7074ZM1112.76 28.7502C1112.76 31.7729 1113.4 34.4818 1114.69 36.864L1115.57 36.3864C1114.37 34.1686 1113.76 31.6275 1113.76 28.7502H1112.76ZM1114.7 36.868C1115.99 39.1939 1117.75 41.0106 1119.98 42.3075L1120.49 41.4429C1118.42 40.2398 1116.78 38.5565 1115.57 36.3824L1114.7 36.868ZM1119.98 42.3075C1122.21 43.6047 1124.7 44.2502 1127.43 44.2502V43.2502C1124.87 43.2502 1122.55 42.6457 1120.49 41.4429L1119.98 42.3075ZM1173.77 52.6002L1173.54 53.0402L1173.54 53.0433L1173.77 52.6002ZM1173.77 4.9752L1174.01 5.41722L1174.01 5.41623L1173.77 4.9752ZM1211.2 11.3502L1211.53 11.721L1211.88 11.4059L1211.59 11.0386L1211.2 11.3502ZM1201.75 19.9002L1201.36 20.2194L1201.7 20.6212L1202.08 20.271L1201.75 19.9002ZM1181.72 15.6252L1181.48 15.1881L1181.48 15.1905L1181.72 15.6252ZM1176.55 20.9502L1176.11 20.7114L1176.11 20.7149L1176.55 20.9502ZM1176.55 36.6252L1176.11 36.8566L1176.11 36.868L1176.55 36.6252ZM1181.72 41.8752L1181.48 42.3099L1181.48 42.3123L1181.72 41.8752ZM1201.75 37.6002L1202.08 37.2294L1201.7 36.8792L1201.36 37.281L1201.75 37.6002ZM1211.2 46.1502L1211.59 46.4618L1211.88 46.0945L1211.53 45.7794L1211.2 46.1502ZM1188.62 55.5502C1183.2 55.5502 1178.33 54.4158 1174.01 52.1571L1173.54 53.0433C1178.02 55.3846 1183.05 56.5502 1188.62 56.5502V55.5502ZM1174.01 52.1603C1169.74 49.8519 1166.38 46.664 1163.93 42.5922L1163.07 43.1082C1165.62 47.3364 1169.11 50.6486 1173.54 53.0402L1174.01 52.1603ZM1163.93 42.5922C1161.48 38.5266 1160.25 33.9171 1160.25 28.7502H1159.25C1159.25 34.0832 1160.52 38.8738 1163.07 43.1082L1163.93 42.5922ZM1160.25 28.7502C1160.25 23.5832 1161.48 18.9738 1163.93 14.9082L1163.07 14.3922C1160.52 18.6266 1159.25 23.4171 1159.25 28.7502H1160.25ZM1163.93 14.9082C1166.38 10.8374 1169.74 7.67542 1174.01 5.41722L1173.54 4.53318C1169.11 6.87498 1165.62 10.163 1163.07 14.3922L1163.93 14.9082ZM1174.01 5.41623C1178.33 3.1088 1183.2 1.9502 1188.62 1.9502V0.950195C1183.05 0.950195 1178.02 2.14159 1173.54 4.53416L1174.01 5.41623ZM1188.62 1.9502C1193.36 1.9502 1197.62 2.78937 1201.4 4.45759L1201.8 3.54281C1197.88 1.81102 1193.48 0.950195 1188.62 0.950195V1.9502ZM1201.4 4.45759C1205.18 6.12594 1208.31 8.5268 1210.81 11.6618L1211.59 11.0386C1208.99 7.7736 1205.72 5.27446 1201.8 3.54281L1201.4 4.45759ZM1210.86 10.9794L1201.41 19.5294L1202.08 20.271L1211.53 11.721L1210.86 10.9794ZM1202.13 19.581C1198.65 15.3792 1194.39 13.2502 1189.37 13.2502V14.2502C1194.06 14.2502 1198.05 16.2212 1201.36 20.2194L1202.13 19.581ZM1189.37 13.2502C1186.45 13.2502 1183.81 13.8926 1181.48 15.1881L1181.97 16.0623C1184.14 14.8578 1186.6 14.2502 1189.37 14.2502V13.2502ZM1181.48 15.1905C1179.19 16.4882 1177.4 18.3324 1176.11 20.7114L1176.99 21.189C1178.2 18.968 1179.86 17.2622 1181.97 16.0599L1181.48 15.1905ZM1176.11 20.7149C1174.86 23.0479 1174.25 25.7311 1174.25 28.7502H1175.25C1175.25 25.8693 1175.83 23.3525 1176.99 21.1855L1176.11 20.7149ZM1174.25 28.7502C1174.25 31.7696 1174.86 34.4759 1176.11 36.8566L1176.99 36.3939C1175.83 34.1746 1175.25 31.6308 1175.25 28.7502H1174.25ZM1176.11 36.868C1177.4 39.1968 1179.2 41.0138 1181.48 42.3099L1181.97 41.4405C1179.85 40.2366 1178.19 38.5536 1176.99 36.3824L1176.11 36.868ZM1181.48 42.3123C1183.81 43.6078 1186.45 44.2502 1189.37 44.2502V43.2502C1186.6 43.2502 1184.14 42.6426 1181.97 41.4381L1181.48 42.3123ZM1189.37 44.2502C1194.39 44.2502 1198.65 42.1212 1202.13 37.9194L1201.36 37.281C1198.05 41.2792 1194.06 43.2502 1189.37 43.2502V44.2502ZM1201.41 37.971L1210.86 46.521L1211.53 45.7794L1202.08 37.2294L1201.41 37.971ZM1210.81 45.8386C1208.31 48.9736 1205.18 51.3745 1201.4 53.0428L1201.8 53.9576C1205.72 52.2259 1208.99 49.7268 1211.59 46.4618L1210.81 45.8386ZM1201.4 53.0428C1197.62 54.711 1193.36 55.5502 1188.62 55.5502V56.5502C1193.48 56.5502 1197.88 55.6894 1201.8 53.9576L1201.4 53.0428ZM1258.11 23.5752L1257.79 23.9602L1257.79 23.9629L1258.11 23.5752ZM1216.41 55.0002H1215.91V55.5002H1216.41V55.0002ZM1216.41 2.5002V2.0002H1215.91V2.5002H1216.41ZM1231.03 2.5002H1231.53V2.0002H1231.03V2.5002ZM1231.03 19.2252H1230.53V19.7252H1231.03V19.2252ZM1246.18 42.3252L1245.85 41.9535L1245.84 41.9593L1246.18 42.3252ZM1231.03 29.8002V29.3002H1230.53V29.8002H1231.03ZM1231.03 44.3502H1230.53V44.8502H1231.03V44.3502ZM1269.13 2.5002V2.0002H1268.63V2.5002H1269.13ZM1283.76 2.5002H1284.26V2.0002H1283.76V2.5002ZM1283.76 55.0002V55.5002H1284.26V55.0002H1283.76ZM1269.13 55.0002H1268.63V55.5002H1269.13V55.0002ZM1243.18 19.7252C1249.56 19.7252 1254.41 21.1603 1257.79 23.9602L1258.43 23.1902C1254.8 20.1901 1249.7 18.7252 1243.18 18.7252V19.7252ZM1257.79 23.9629C1261.15 26.6946 1262.86 30.7842 1262.86 36.3252H1263.86C1263.86 30.5662 1262.07 26.1558 1258.42 23.1875L1257.79 23.9629ZM1262.86 36.3252C1262.86 42.2585 1260.95 46.7278 1257.19 49.8137L1257.82 50.5867C1261.86 47.2726 1263.86 42.4919 1263.86 36.3252H1262.86ZM1257.19 49.8137C1253.41 52.9168 1248.11 54.5002 1241.23 54.5002V55.5002C1248.26 55.5002 1253.81 53.8836 1257.82 50.5867L1257.19 49.8137ZM1241.23 54.5002H1216.41V55.5002H1241.23V54.5002ZM1216.91 55.0002V2.5002H1215.91V55.0002H1216.91ZM1216.41 3.0002H1231.03V2.0002H1216.41V3.0002ZM1230.53 2.5002V19.2252H1231.53V2.5002H1230.53ZM1231.03 19.7252H1243.18V18.7252H1231.03V19.7252ZM1240.26 44.8502C1242.85 44.8502 1244.96 44.1482 1246.52 42.6911L1245.84 41.9593C1244.51 43.2022 1242.66 43.8502 1240.26 43.8502V44.8502ZM1246.52 42.6968C1248.14 41.232 1248.93 39.184 1248.93 36.6252H1247.93C1247.93 38.9664 1247.22 40.7183 1245.85 41.9535L1246.52 42.6968ZM1248.93 36.6252C1248.93 34.247 1248.22 32.3807 1246.71 31.1226C1245.22 29.879 1243.04 29.3002 1240.26 29.3002V30.3002C1242.92 30.3002 1244.83 30.8589 1246.07 31.8903C1247.29 32.9072 1247.93 34.4534 1247.93 36.6252H1248.93ZM1240.26 29.3002H1231.03V30.3002H1240.26V29.3002ZM1230.53 29.8002V44.3502H1231.53V29.8002H1230.53ZM1231.03 44.8502H1240.26V43.8502H1231.03V44.8502ZM1269.13 3.0002H1283.76V2.0002H1269.13V3.0002ZM1283.26 2.5002V55.0002H1284.26V2.5002H1283.26ZM1283.76 54.5002H1269.13V55.5002H1283.76V54.5002ZM1269.63 55.0002V2.5002H1268.63V55.0002H1269.63Z" fill="#CBCBCB"/>
</g>
</g>
<defs>
<clipPath id="clip0_7_413">
<rect width="1300" height="623" fill="white"/>
</clipPath>
<clipPath id="clip1_7_413">
<rect width="412" height="57" fill="white" transform="translate(873)"/>
</clipPath>
</defs>
</svg>
