<svg width="1300" height="609" viewBox="0 0 1300 609" fill="none" xmlns="http://www.w3.org/2000/svg">
<g clip-path="url(#clip0_7_281)">
<path d="M891.9 2.5002H892.4V2.0002H891.9V2.5002ZM891.9 55.0002V55.5002H892.4V55.0002H891.9ZM877.2 55.0002H876.7V55.5002H877.2V55.0002ZM877.2 14.2752H877.7V13.7752H877.2V14.2752ZM857.25 14.2752V13.7752H856.75V14.2752H857.25ZM857.25 55.0002V55.5002H857.75V55.0002H857.25ZM842.625 55.0002H842.125V55.5002H842.625V55.0002ZM842.625 2.5002V2.0002H842.125V2.5002H842.625ZM891.4 2.5002V55.0002H892.4V2.5002H891.4ZM891.9 54.5002H877.2V55.5002H891.9V54.5002ZM877.7 55.0002V14.2752H876.7V55.0002H877.7ZM877.2 13.7752H857.25V14.7752H877.2V13.7752ZM856.75 14.2752V55.0002H857.75V14.2752H856.75ZM857.25 54.5002H842.625V55.5002H857.25V54.5002ZM843.125 55.0002V2.5002H842.125V55.0002H843.125ZM842.625 3.0002H891.9V2.0002H842.625V3.0002ZM912.423 52.5252L912.188 52.9662L912.19 52.9673L912.423 52.5252ZM901.998 42.7752L901.57 43.0332L901.572 43.037L901.998 42.7752ZM901.998 14.7252L901.572 14.4634L901.57 14.4672L901.998 14.7252ZM912.423 4.9752L912.19 4.53306L912.188 4.53416L912.423 4.9752ZM942.348 4.9752L942.112 5.41624L942.115 5.41733L942.348 4.9752ZM952.773 14.7252L952.345 14.9832L952.347 14.987L952.773 14.7252ZM952.773 42.7752L952.347 42.5134L952.345 42.5172L952.773 42.7752ZM942.348 52.5252L942.115 52.0831L942.112 52.0842L942.348 52.5252ZM939.723 36.6252L940.16 36.868L940.162 36.864L939.723 36.6252ZM939.723 20.9502L939.284 21.189L939.286 21.193L939.723 20.9502ZM915.123 20.9502L915.56 21.193L915.562 21.189L915.123 20.9502ZM915.123 36.6252L914.684 36.864L914.686 36.868L915.123 36.6252ZM927.423 55.5502C921.946 55.5502 917.027 54.3913 912.657 52.0831L912.19 52.9673C916.719 55.3591 921.8 56.5502 927.423 56.5502V55.5502ZM912.659 52.0842C908.335 49.7749 904.926 46.586 902.424 42.5134L901.572 43.037C904.17 47.2644 907.711 50.5755 912.188 52.9662L912.659 52.0842ZM902.426 42.5172C899.977 38.4508 898.748 33.8662 898.748 28.7502H897.748C897.748 34.0342 899.019 38.7996 901.57 43.0332L902.426 42.5172ZM898.748 28.7502C898.748 23.6342 899.977 19.0496 902.426 14.9832L901.57 14.4672C899.019 18.7008 897.748 23.4662 897.748 28.7502H898.748ZM902.424 14.987C904.926 10.9144 908.335 7.72549 912.659 5.41623L912.188 4.53416C907.711 6.92491 904.17 10.236 901.572 14.4634L902.424 14.987ZM912.657 5.41733C917.027 3.10913 921.946 1.9502 927.423 1.9502V0.950195C921.8 0.950195 916.719 2.14127 912.19 4.53306L912.657 5.41733ZM927.423 1.9502C932.9 1.9502 937.793 3.10916 942.112 5.41624L942.584 4.53416C938.103 2.14124 933.046 0.950195 927.423 0.950195V1.9502ZM942.115 5.41733C946.487 7.72655 949.894 10.9143 952.345 14.9832L953.201 14.4672C950.653 10.2361 947.109 6.92384 942.582 4.53306L942.115 5.41733ZM952.347 14.987C954.845 19.0529 956.098 23.6361 956.098 28.7502H957.098C957.098 23.4643 955.801 18.6975 953.199 14.4634L952.347 14.987ZM956.098 28.7502C956.098 33.8643 954.845 38.4475 952.347 42.5134L953.199 43.037C955.801 38.8029 957.098 34.0361 957.098 28.7502H956.098ZM952.345 42.5172C949.894 46.5861 946.487 49.7738 942.115 52.0831L942.582 52.9673C947.109 50.5766 950.653 47.2643 953.201 43.0332L952.345 42.5172ZM942.112 52.0842C937.793 54.3912 932.9 55.5502 927.423 55.5502V56.5502C933.046 56.5502 938.103 55.3592 942.584 52.9662L942.112 52.0842ZM927.423 44.2502C930.155 44.2502 932.643 43.6047 934.874 42.3075L934.372 41.4429C932.303 42.6457 929.991 43.2502 927.423 43.2502V44.2502ZM934.874 42.3075C937.105 41.0106 938.868 39.1939 940.16 36.868L939.286 36.3824C938.078 38.5565 936.441 40.2398 934.372 41.4429L934.874 42.3075ZM940.162 36.864C941.457 34.4818 942.098 31.7729 942.098 28.7502H941.098C941.098 31.6275 940.489 34.1686 939.284 36.3864L940.162 36.864ZM942.098 28.7502C942.098 25.7278 941.457 23.0419 940.16 20.7074L939.286 21.193C940.489 23.3585 941.098 25.8726 941.098 28.7502H942.098ZM940.162 20.7114C938.871 18.3354 937.108 16.4915 934.874 15.1929L934.372 16.0575C936.438 17.2589 938.075 18.965 939.284 21.189L940.162 20.7114ZM934.874 15.1929C932.643 13.8957 930.155 13.2502 927.423 13.2502V14.2502C929.991 14.2502 932.303 14.8547 934.372 16.0575L934.874 15.1929ZM927.423 13.2502C924.691 13.2502 922.203 13.8957 919.972 15.1929L920.474 16.0575C922.543 14.8547 924.855 14.2502 927.423 14.2502V13.2502ZM919.972 15.1929C917.738 16.4915 915.975 18.3354 914.684 20.7114L915.562 21.189C916.771 18.965 918.408 17.2589 920.474 16.0575L919.972 15.1929ZM914.686 20.7074C913.389 23.0419 912.748 25.7278 912.748 28.7502H913.748C913.748 25.8726 914.357 23.3585 915.56 21.193L914.686 20.7074ZM912.748 28.7502C912.748 31.7729 913.389 34.4818 914.684 36.864L915.562 36.3864C914.357 34.1686 913.748 31.6275 913.748 28.7502H912.748ZM914.686 36.868C915.978 39.1939 917.741 41.0106 919.972 42.3075L920.474 41.4429C918.405 40.2398 916.768 38.5565 915.56 36.3824L914.686 36.868ZM919.972 42.3075C922.203 43.6047 924.691 44.2502 927.423 44.2502V43.2502C924.855 43.2502 922.543 42.6457 920.474 41.4429L919.972 42.3075ZM1010.36 55.0002L1009.86 55.0015L1009.86 55.5002H1010.36V55.0002ZM1010.29 27.1752L1010.79 27.1739L1010.78 25.3679L1009.86 26.9192L1010.29 27.1752ZM996.788 49.8252V50.3252H997.072L997.218 50.0812L996.788 49.8252ZM990.188 49.8252L989.762 50.0863L989.908 50.3252H990.188V49.8252ZM976.688 27.7752L977.115 27.5141L976.188 26.001V27.7752H976.688ZM976.688 55.0002V55.5002H977.188V55.0002H976.688ZM963.038 55.0002H962.538V55.5002H963.038V55.0002ZM963.038 2.5002V2.0002H962.538V2.5002H963.038ZM975.263 2.5002L975.69 2.24016L975.544 2.0002H975.263V2.5002ZM993.713 32.8002L993.286 33.0602L993.718 33.7703L994.143 33.0556L993.713 32.8002ZM1011.71 2.5002V2.0002H1011.43L1011.28 2.24483L1011.71 2.5002ZM1023.94 2.5002L1024.44 2.49877L1024.44 2.0002H1023.94V2.5002ZM1024.09 55.0002V55.5002H1024.59L1024.59 54.9988L1024.09 55.0002ZM1010.86 54.9989L1010.79 27.1739L1009.79 27.1765L1009.86 55.0015L1010.86 54.9989ZM1009.86 26.9192L996.359 49.5692L997.218 50.0812L1010.72 27.4312L1009.86 26.9192ZM996.788 49.3252H990.188V50.3252H996.788V49.3252ZM990.615 49.5641L977.115 27.5141L976.262 28.0363L989.762 50.0863L990.615 49.5641ZM976.188 27.7752V55.0002H977.188V27.7752H976.188ZM976.688 54.5002H963.038V55.5002H976.688V54.5002ZM963.538 55.0002V2.5002H962.538V55.0002H963.538ZM963.038 3.0002H975.263V2.0002H963.038V3.0002ZM974.836 2.76024L993.286 33.0602L994.14 32.5402L975.69 2.24016L974.836 2.76024ZM994.143 33.0556L1012.14 2.75556L1011.28 2.24483L993.283 32.5448L994.143 33.0556ZM1011.71 3.0002H1023.94V2.0002H1011.71V3.0002ZM1023.44 2.50163L1023.59 55.0016L1024.59 54.9988L1024.44 2.49877L1023.44 2.50163ZM1024.09 54.5002H1010.36V55.5002H1024.09V54.5002ZM1044.55 52.5252L1044.32 52.9662L1044.32 52.9673L1044.55 52.5252ZM1034.13 42.7752L1033.7 43.0332L1033.7 43.037L1034.13 42.7752ZM1034.13 14.7252L1033.7 14.4634L1033.7 14.4672L1034.13 14.7252ZM1044.55 4.9752L1044.32 4.53306L1044.32 4.53416L1044.55 4.9752ZM1074.48 4.9752L1074.24 5.41624L1074.25 5.41733L1074.48 4.9752ZM1084.9 14.7252L1084.48 14.9832L1084.48 14.987L1084.9 14.7252ZM1084.9 42.7752L1084.48 42.5134L1084.48 42.5172L1084.9 42.7752ZM1074.48 52.5252L1074.25 52.0831L1074.24 52.0842L1074.48 52.5252ZM1071.85 36.6252L1072.29 36.868L1072.29 36.864L1071.85 36.6252ZM1071.85 20.9502L1071.42 21.189L1071.42 21.193L1071.85 20.9502ZM1047.26 20.9502L1047.69 21.193L1047.69 21.189L1047.26 20.9502ZM1047.26 36.6252L1046.82 36.864L1046.82 36.868L1047.26 36.6252ZM1059.55 55.5502C1054.08 55.5502 1049.16 54.3913 1044.79 52.0831L1044.32 52.9673C1048.85 55.3591 1053.93 56.5502 1059.55 56.5502V55.5502ZM1044.79 52.0842C1040.47 49.7749 1037.06 46.586 1034.56 42.5134L1033.7 43.037C1036.3 47.2644 1039.84 50.5755 1044.32 52.9662L1044.79 52.0842ZM1034.56 42.5172C1032.11 38.4508 1030.88 33.8662 1030.88 28.7502H1029.88C1029.88 34.0342 1031.15 38.7996 1033.7 43.0332L1034.56 42.5172ZM1030.88 28.7502C1030.88 23.6342 1032.11 19.0496 1034.56 14.9832L1033.7 14.4672C1031.15 18.7008 1029.88 23.4662 1029.88 28.7502H1030.88ZM1034.56 14.987C1037.06 10.9144 1040.47 7.72549 1044.79 5.41623L1044.32 4.53416C1039.84 6.92491 1036.3 10.236 1033.7 14.4634L1034.56 14.987ZM1044.79 5.41733C1049.16 3.10913 1054.08 1.9502 1059.55 1.9502V0.950195C1053.93 0.950195 1048.85 2.14127 1044.32 4.53306L1044.79 5.41733ZM1059.55 1.9502C1065.03 1.9502 1069.93 3.10916 1074.24 5.41624L1074.71 4.53416C1070.24 2.14124 1065.18 0.950195 1059.55 0.950195V1.9502ZM1074.25 5.41733C1078.62 7.72655 1082.03 10.9143 1084.48 14.9832L1085.33 14.4672C1082.78 10.2361 1079.24 6.92384 1074.71 4.53306L1074.25 5.41733ZM1084.48 14.987C1086.98 19.0529 1088.23 23.6361 1088.23 28.7502H1089.23C1089.23 23.4643 1087.93 18.6975 1085.33 14.4634L1084.48 14.987ZM1088.23 28.7502C1088.23 33.8643 1086.98 38.4475 1084.48 42.5134L1085.33 43.037C1087.93 38.8029 1089.23 34.0361 1089.23 28.7502H1088.23ZM1084.48 42.5172C1082.03 46.5861 1078.62 49.7738 1074.25 52.0831L1074.71 52.9673C1079.24 50.5766 1082.78 47.2643 1085.33 43.0332L1084.48 42.5172ZM1074.24 52.0842C1069.93 54.3912 1065.03 55.5502 1059.55 55.5502V56.5502C1065.18 56.5502 1070.24 55.3592 1074.71 52.9662L1074.24 52.0842ZM1059.55 44.2502C1062.29 44.2502 1064.77 43.6047 1067.01 42.3075L1066.5 41.4429C1064.43 42.6457 1062.12 43.2502 1059.55 43.2502V44.2502ZM1067.01 42.3075C1069.24 41.0106 1071 39.1939 1072.29 36.868L1071.42 36.3824C1070.21 38.5565 1068.57 40.2398 1066.5 41.4429L1067.01 42.3075ZM1072.29 36.864C1073.59 34.4818 1074.23 31.7729 1074.23 28.7502H1073.23C1073.23 31.6275 1072.62 34.1686 1071.42 36.3864L1072.29 36.864ZM1074.23 28.7502C1074.23 25.7278 1073.59 23.0419 1072.29 20.7074L1071.42 21.193C1072.62 23.3585 1073.23 25.8726 1073.23 28.7502H1074.23ZM1072.29 20.7114C1071 18.3354 1069.24 16.4915 1067.01 15.1929L1066.5 16.0575C1068.57 17.2589 1070.21 18.965 1071.42 21.189L1072.29 20.7114ZM1067.01 15.1929C1064.77 13.8957 1062.29 13.2502 1059.55 13.2502V14.2502C1062.12 14.2502 1064.43 14.8547 1066.5 16.0575L1067.01 15.1929ZM1059.55 13.2502C1056.82 13.2502 1054.34 13.8957 1052.1 15.1929L1052.61 16.0575C1054.68 14.8547 1056.99 14.2502 1059.55 14.2502V13.2502ZM1052.1 15.1929C1049.87 16.4915 1048.11 18.3354 1046.82 20.7114L1047.69 21.189C1048.9 18.965 1050.54 17.2589 1052.61 16.0575L1052.1 15.1929ZM1046.82 20.7074C1045.52 23.0419 1044.88 25.7278 1044.88 28.7502H1045.88C1045.88 25.8726 1046.49 23.3585 1047.69 21.193L1046.82 20.7074ZM1044.88 28.7502C1044.88 31.7729 1045.52 34.4818 1046.82 36.864L1047.69 36.3864C1046.49 34.1686 1045.88 31.6275 1045.88 28.7502H1044.88ZM1046.82 36.868C1048.11 39.1939 1049.87 41.0106 1052.1 42.3075L1052.61 41.4429C1050.54 40.2398 1048.9 38.5565 1047.69 36.3824L1046.82 36.868ZM1052.1 42.3075C1054.34 43.6047 1056.82 44.2502 1059.55 44.2502V43.2502C1056.99 43.2502 1054.68 42.6457 1052.61 41.4429L1052.1 42.3075ZM1142.77 34.9002L1143.21 34.6739L1143.07 34.4002H1142.77V34.9002ZM1136.54 34.9002V34.4002H1136.04V34.9002H1136.54ZM1136.54 55.0002V55.5002H1137.04V55.0002H1136.54ZM1121.99 55.0002H1121.49V55.5002H1121.99V55.0002ZM1121.99 34.9002H1122.49V34.4002H1121.99V34.9002ZM1115.77 34.9002V34.4002H1115.46L1115.32 34.6726L1115.77 34.9002ZM1105.49 55.0002V55.5002H1105.8L1105.94 55.2278L1105.49 55.0002ZM1088.32 55.0002L1087.88 54.7619L1087.48 55.5002H1088.32V55.0002ZM1103.24 27.4752L1103.68 27.7135L1103.81 27.471L1103.68 27.2304L1103.24 27.4752ZM1089.22 2.5002V2.0002H1088.36L1088.78 2.74502L1089.22 2.5002ZM1104.82 2.5002L1105.26 2.27137L1105.12 2.0002H1104.82V2.5002ZM1115.32 22.9002L1114.87 23.129L1115.01 23.4002H1115.32V22.9002ZM1121.99 22.9002V23.4002H1122.49V22.9002H1121.99ZM1121.99 2.5002V2.0002H1121.49V2.5002H1121.99ZM1136.54 2.5002H1137.04V2.0002H1136.54V2.5002ZM1136.54 22.9002H1136.04V23.4002H1136.54V22.9002ZM1142.92 22.9002V23.4002H1143.22L1143.36 23.1329L1142.92 22.9002ZM1153.64 2.5002V2.0002H1153.34L1153.2 2.26752L1153.64 2.5002ZM1169.17 2.5002L1169.6 2.74502L1170.02 2.0002H1169.17V2.5002ZM1155.14 27.4752L1154.7 27.2304L1154.57 27.471L1154.7 27.7135L1155.14 27.4752ZM1170.07 55.0002V55.5002H1170.91L1170.51 54.7619L1170.07 55.0002ZM1152.97 55.0002L1152.52 55.2265L1152.66 55.5002H1152.97V55.0002ZM1142.77 34.4002H1136.54V35.4002H1142.77V34.4002ZM1136.04 34.9002V55.0002H1137.04V34.9002H1136.04ZM1136.54 54.5002H1121.99V55.5002H1136.54V54.5002ZM1122.49 55.0002V34.9002H1121.49V55.0002H1122.49ZM1121.99 34.4002H1115.77V35.4002H1121.99V34.4002ZM1115.32 34.6726L1105.05 54.7726L1105.94 55.2278L1116.21 35.1278L1115.32 34.6726ZM1105.49 54.5002H1088.32V55.5002H1105.49V54.5002ZM1088.76 55.2385L1103.68 27.7135L1102.8 27.2369L1087.88 54.7619L1088.76 55.2385ZM1103.68 27.2304L1089.65 2.25538L1088.78 2.74502L1102.8 27.72L1103.68 27.2304ZM1089.22 3.0002H1104.82V2.0002H1089.22V3.0002ZM1104.37 2.72902L1114.87 23.129L1115.76 22.6714L1105.26 2.27137L1104.37 2.72902ZM1115.32 23.4002H1121.99V22.4002H1115.32V23.4002ZM1122.49 22.9002V2.5002H1121.49V22.9002H1122.49ZM1121.99 3.0002H1136.54V2.0002H1121.99V3.0002ZM1136.04 2.5002V22.9002H1137.04V2.5002H1136.04ZM1136.54 23.4002H1142.92V22.4002H1136.54V23.4002ZM1143.36 23.1329L1154.08 2.73287L1153.2 2.26752L1142.47 22.6675L1143.36 23.1329ZM1153.64 3.0002H1169.17V2.0002H1153.64V3.0002ZM1168.73 2.25538L1154.7 27.2304L1155.58 27.72L1169.6 2.74502L1168.73 2.25538ZM1154.7 27.7135L1169.63 55.2385L1170.51 54.7619L1155.58 27.2369L1154.7 27.7135ZM1170.07 54.5002H1152.97V55.5002H1170.07V54.5002ZM1153.41 54.7739L1143.21 34.6739L1142.32 35.1265L1152.52 55.2265L1153.41 54.7739ZM1215.51 43.5252H1216.01V43.0252H1215.51V43.5252ZM1215.51 55.0002V55.5002H1216.01V55.0002H1215.51ZM1173.36 55.0002H1172.86V55.5002H1173.36V55.0002ZM1173.36 2.5002V2.0002H1172.86V2.5002H1173.36ZM1214.53 2.5002H1215.03V2.0002H1214.53V2.5002ZM1214.53 13.9752V14.4752H1215.03V13.9752H1214.53ZM1188.06 13.9752V13.4752H1187.56V13.9752H1188.06ZM1188.06 22.8252H1187.56V23.3252H1188.06V22.8252ZM1211.38 22.8252H1211.88V22.3252H1211.38V22.8252ZM1211.38 33.9252V34.4252H1211.88V33.9252H1211.38ZM1188.06 33.9252V33.4252H1187.56V33.9252H1188.06ZM1188.06 43.5252H1187.56V44.0252H1188.06V43.5252ZM1215.01 43.5252V55.0002H1216.01V43.5252H1215.01ZM1215.51 54.5002H1173.36V55.5002H1215.51V54.5002ZM1173.86 55.0002V2.5002H1172.86V55.0002H1173.86ZM1173.36 3.0002H1214.53V2.0002H1173.36V3.0002ZM1214.03 2.5002V13.9752H1215.03V2.5002H1214.03ZM1214.53 13.4752H1188.06V14.4752H1214.53V13.4752ZM1187.56 13.9752V22.8252H1188.56V13.9752H1187.56ZM1188.06 23.3252H1211.38V22.3252H1188.06V23.3252ZM1210.88 22.8252V33.9252H1211.88V22.8252H1210.88ZM1211.38 33.4252H1188.06V34.4252H1211.38V33.4252ZM1187.56 33.9252V43.5252H1188.56V33.9252H1187.56ZM1188.06 44.0252H1215.51V43.0252H1188.06V44.0252ZM1269.79 55.0002L1269.29 55.0015L1269.29 55.5002H1269.79V55.0002ZM1269.72 27.1752L1270.22 27.1739L1270.21 25.3679L1269.29 26.9192L1269.72 27.1752ZM1256.22 49.8252V50.3252H1256.5L1256.65 50.0812L1256.22 49.8252ZM1249.62 49.8252L1249.19 50.0863L1249.34 50.3252H1249.62V49.8252ZM1236.12 27.7752L1236.54 27.5141L1235.62 26.001V27.7752H1236.12ZM1236.12 55.0002V55.5002H1236.62V55.0002H1236.12ZM1222.47 55.0002H1221.97V55.5002H1222.47V55.0002ZM1222.47 2.5002V2.0002H1221.97V2.5002H1222.47ZM1234.69 2.5002L1235.12 2.24016L1234.97 2.0002H1234.69V2.5002ZM1253.14 32.8002L1252.72 33.0602L1253.15 33.7703L1253.57 33.0556L1253.14 32.8002ZM1271.14 2.5002V2.0002H1270.86L1270.71 2.24483L1271.14 2.5002ZM1283.37 2.5002L1283.87 2.49877L1283.87 2.0002H1283.37V2.5002ZM1283.52 55.0002V55.5002H1284.02L1284.02 54.9988L1283.52 55.0002ZM1270.29 54.9989L1270.22 27.1739L1269.22 27.1765L1269.29 55.0015L1270.29 54.9989ZM1269.29 26.9192L1255.79 49.5692L1256.65 50.0812L1270.15 27.4312L1269.29 26.9192ZM1256.22 49.3252H1249.62V50.3252H1256.22V49.3252ZM1250.04 49.5641L1236.54 27.5141L1235.69 28.0363L1249.19 50.0863L1250.04 49.5641ZM1235.62 27.7752V55.0002H1236.62V27.7752H1235.62ZM1236.12 54.5002H1222.47V55.5002H1236.12V54.5002ZM1222.97 55.0002V2.5002H1221.97V55.0002H1222.97ZM1222.47 3.0002H1234.69V2.0002H1222.47V3.0002ZM1234.27 2.76024L1252.72 33.0602L1253.57 32.5402L1235.12 2.24016L1234.27 2.76024ZM1253.57 33.0556L1271.57 2.75556L1270.71 2.24483L1252.71 32.5448L1253.57 33.0556ZM1271.14 3.0002H1283.37V2.0002H1271.14V3.0002ZM1282.87 2.50163L1283.02 55.0016L1284.02 54.9988L1283.87 2.49877L1282.87 2.50163ZM1283.52 54.5002H1269.79V55.5002H1283.52V54.5002Z" fill="#CBCBCB"/>
</g>
<defs>
<clipPath id="clip0_7_281">
<rect width="1300" height="608.59" fill="white"/>
</clipPath>
</defs>
</svg>
