<svg width="60" height="60" viewBox="0 0 60 60" fill="none" xmlns="http://www.w3.org/2000/svg">
<g clip-path="url(#clip0_7_288)">
<g clip-path="url(#clip1_7_288)">
<path d="M10 25.4653H23C23.553 25.4653 24 25.0173 24 24.4653C24 23.9133 23.553 23.4653 23 23.4653H10C9.447 23.4653 9 23.9133 9 24.4653C9 25.0173 9.447 25.4653 10 25.4653Z" fill="#7E83C9"/>
<path d="M36 29.4653H10C9.447 29.4653 9 29.9133 9 30.4653C9 31.0173 9.447 31.4653 10 31.4653H36C36.553 31.4653 37 31.0173 37 30.4653C37 29.9133 36.553 29.4653 36 29.4653Z" fill="#7E83C9"/>
<path d="M36 35.4653H10C9.447 35.4653 9 35.9133 9 36.4653C9 37.0173 9.447 37.4653 10 37.4653H36C36.553 37.4653 37 37.0173 37 36.4653C37 35.9133 36.553 35.4653 36 35.4653Z" fill="#7E83C9"/>
<path d="M54.072 2.53533L19.93 2.46533C16.66 2.46533 14 5.12533 14 8.39533V13.5193L5.93 13.5363C2.66 13.5363 0 16.1963 0 19.4663V40.6073C0 43.8773 2.66 46.5363 5.93 46.5363H12V56.5363C12 56.9493 12.254 57.3203 12.64 57.4693C12.757 57.5143 12.879 57.5363 13 57.5363C13.276 57.5363 13.547 57.4213 13.74 57.2093L23.444 46.5343L40.07 46.4663C43.34 46.4663 46 43.8063 46 40.5373V40.4243L51.26 46.2103C51.453 46.4223 51.724 46.5373 52 46.5373C52.121 46.5373 52.243 46.5153 52.36 46.4703C52.746 46.3213 53 45.9503 53 45.5373V35.5373H54.07C57.34 35.5373 60 32.8773 60 29.6083V8.46533C60 5.19633 57.341 2.53633 54.072 2.53533ZM44 40.5363C44 42.7033 42.237 44.4653 40.066 44.4653L22.996 44.5353C22.716 44.5363 22.448 44.6553 22.26 44.8623L14 53.9493V45.5353C14 44.9833 13.553 44.5353 13 44.5353H5.93C3.763 44.5353 2 42.7723 2 40.6063V19.4653C2 17.2983 3.763 15.5353 5.932 15.5353L15 15.5163C15.001 15.5163 15.001 15.5163 15.002 15.5163L40.07 15.4643C42.237 15.4643 44 17.2273 44 19.3943V37.8353V40.5363ZM58 29.6063C58 31.7733 56.237 33.5353 54.07 33.5353H52C51.447 33.5353 51 33.9833 51 34.5353V42.9493L46 37.4493V19.3953C46 16.1253 43.34 13.4653 40.068 13.4653L16 13.5143V8.39433C16 6.22733 17.763 4.46433 19.928 4.46433L54.069 4.53433C54.07 4.53433 54.07 4.53433 54.071 4.53433C56.238 4.53433 58.001 6.29733 58.001 8.46433L58 29.6063Z" fill="#0C1014"/>
</g>
</g>
<defs>
<clipPath id="clip0_7_288">
<rect width="60" height="60" fill="white"/>
</clipPath>
<clipPath id="clip1_7_288">
<rect width="60" height="60" fill="white"/>
</clipPath>
</defs>
</svg>
