<svg width="36" height="36" viewBox="0 0 36 36" fill="none" xmlns="http://www.w3.org/2000/svg">
<rect x="0.5" y="0.5" width="35" height="35" stroke="white"/>
<path d="M26.9175 13.1836C27.0459 12.7499 26.9175 12.4307 26.2998 12.4307H24.2561C23.7356 12.4307 23.4962 12.7048 23.3678 13.0101C23.3678 13.0101 22.3269 15.5466 20.8557 17.1913C20.3803 17.6667 20.1617 17.8193 19.9015 17.8193C19.7731 17.8193 19.5753 17.6667 19.5753 17.2329V13.1836C19.5753 12.6631 19.4296 12.4307 18.9993 12.4307H15.7862C15.4601 12.4307 15.2657 12.6736 15.2657 12.8991C15.2657 13.3918 16.0014 13.5063 16.0777 14.8943V17.9061C16.0777 18.5653 15.9597 18.6868 15.6995 18.6868C15.0055 18.6868 13.3192 16.1399 12.3198 13.2253C12.1186 12.6597 11.9208 12.4307 11.3969 12.4307H9.35313C8.7702 12.4307 8.65222 12.7048 8.65222 13.0101C8.65222 13.5514 9.34619 16.2406 11.8826 19.7937C13.5725 22.2191 15.9528 23.5342 18.118 23.5342C19.4191 23.5342 19.5788 23.2427 19.5788 22.7396C19.5788 20.4217 19.4608 20.2031 20.1131 20.2031C20.415 20.2031 20.9355 20.3558 22.1499 21.5251C23.5379 22.9131 23.7669 23.5342 24.5441 23.5342H26.5878C27.1708 23.5342 27.4657 23.2427 27.2957 22.6667C26.9071 21.4557 24.2804 18.9644 24.1624 18.7978C23.8605 18.4092 23.9473 18.2357 24.1624 17.8887C24.1659 17.8853 26.6607 14.3738 26.9175 13.1836Z" fill="white"/>
</svg>
