<svg width="22" height="22" viewBox="0 0 22 22" fill="none" xmlns="http://www.w3.org/2000/svg">
<path d="M11 0.34375C5.11328 0.34375 0.34375 5.11328 0.34375 11C0.34375 16.8867 5.11328 21.6562 11 21.6562C16.8867 21.6562 21.6562 16.8867 21.6562 11C21.6562 5.11328 16.8867 0.34375 11 0.34375ZM20.2812 11C20.2812 16.1004 16.152 20.2812 11 20.2812C5.89961 20.2812 1.71875 16.152 1.71875 11C1.71875 5.89961 5.84805 1.71875 11 1.71875C16.1004 1.71875 20.2812 5.84805 20.2812 11ZM13.8832 14.7941L10.3941 12.259C10.2609 12.1602 10.1836 12.0055 10.1836 11.8422V4.98438C10.1836 4.70078 10.4156 4.46875 10.6992 4.46875H11.3008C11.5844 4.46875 11.8164 4.70078 11.8164 4.98438V11.2707L14.8457 13.475C15.0777 13.6426 15.125 13.9648 14.9574 14.1969L14.6051 14.6824C14.4375 14.9102 14.1152 14.9617 13.8832 14.7941Z" fill="#846441" fill-opacity="0.79"/>
</svg>
