<svg width="19" height="26" viewBox="0 0 19 26" fill="none" xmlns="http://www.w3.org/2000/svg">
<path d="M9.49999 4.74902C6.88135 4.74902 4.75097 6.8794 4.75097 9.49804C4.75097 12.1167 6.88135 14.2471 9.49999 14.2471C12.1186 14.2471 14.249 12.1167 14.249 9.49804C14.249 6.8794 12.1186 4.74902 9.49999 4.74902ZM9.49999 12.6641C7.75423 12.6641 6.33398 11.2438 6.33398 9.49804C6.33398 7.75228 7.75423 6.33203 9.49999 6.33203C11.2457 6.33203 12.666 7.75228 12.666 9.49804C12.666 11.2438 11.2457 12.6641 9.49999 12.6641ZM9.49999 0C4.25435 0 0.00195312 4.2524 0.00195312 9.49804C0.00195312 13.3276 1.33613 14.397 8.52387 24.8171C8.99551 25.4984 10.0044 25.4985 10.4762 24.8171C17.6639 14.397 18.998 13.3276 18.998 9.49804C18.998 4.2524 14.7456 0 9.49999 0ZM9.49999 23.4449C2.60921 13.4797 1.58496 12.6885 1.58496 9.49804C1.58496 7.38383 2.40827 5.39622 3.90322 3.90127C5.39817 2.40632 7.38579 1.58301 9.49999 1.58301C11.6142 1.58301 13.6018 2.40632 15.0968 3.90127C16.5917 5.39622 17.415 7.38383 17.415 9.49804C17.415 12.6883 16.3914 13.4788 9.49999 23.4449Z" fill="#846441" fill-opacity="0.79"/>
</svg>
