<svg width="18" height="18" viewBox="0 0 18 18" fill="none" xmlns="http://www.w3.org/2000/svg">
<g clip-path="url(#clip0_7_568)">
<g clip-path="url(#clip1_7_568)">
<g clip-path="url(#clip2_7_568)">
<path d="M9.00225 0H8.99775C4.03538 0 0 4.0365 0 9C0 10.9688 0.6345 12.7935 1.71337 14.2752L0.59175 17.6187L4.05113 16.5128C5.47425 17.4555 7.1719 18 9.00225 18C13.9646 18 18 13.9623 18 9C18 4.03762 13.9646 0 9.00225 0Z" fill="#4CAF50"/>
<path d="M14.2391 12.709C14.022 13.3221 13.1603 13.8306 12.4729 13.9791C12.0026 14.0792 11.3884 14.1591 9.3206 13.3018C6.67575 12.2061 4.9725 9.51846 4.83975 9.34406C4.71262 9.16971 3.771 7.92096 3.771 6.62946C3.771 5.33796 4.42687 4.70909 4.69125 4.43909C4.90837 4.21746 5.26725 4.11621 5.6115 4.11621C5.72285 4.11621 5.823 4.12184 5.913 4.12634C6.17735 4.13759 6.3101 4.15334 6.4845 4.57071C6.7016 5.09386 7.23035 6.38536 7.29335 6.51811C7.3575 6.65086 7.4216 6.83086 7.3316 7.00521C7.24725 7.18521 7.173 7.26511 7.04025 7.41811C6.9075 7.57111 6.7815 7.68811 6.64875 7.85236C6.52725 7.99521 6.39 8.14821 6.543 8.41261C6.696 8.67136 7.22475 9.53421 8.00325 10.2272C9.00785 11.1216 9.82235 11.4073 10.1138 11.5288C10.3309 11.6188 10.5896 11.5975 10.7483 11.4287C10.9496 11.2116 11.1983 10.8516 11.4514 10.4972C11.6314 10.243 11.8586 10.2115 12.0971 10.3015C12.3401 10.3858 13.626 11.0215 13.8904 11.1531C14.1548 11.2858 14.3291 11.3488 14.3933 11.4602C14.4563 11.5716 14.4563 12.0947 14.2391 12.709Z" fill="#FAFAFA"/>
</g>
</g>
</g>
<defs>
<clipPath id="clip0_7_568">
<rect width="18" height="18" fill="white"/>
</clipPath>
<clipPath id="clip1_7_568">
<rect width="18" height="18" fill="white"/>
</clipPath>
<clipPath id="clip2_7_568">
<rect width="18" height="18" fill="white"/>
</clipPath>
</defs>
</svg>
