<svg width="36" height="36" viewBox="0 0 36 36" fill="none" xmlns="http://www.w3.org/2000/svg">
<rect x="0.5" y="0.5" width="35" height="35" stroke="white"/>
<path d="M18.0038 13.6287C15.5913 13.6287 13.6453 15.5747 13.6453 17.9872C13.6453 20.3998 15.5913 22.3458 18.0038 22.3458C20.4164 22.3458 22.3624 20.3998 22.3624 17.9872C22.3624 15.5747 20.4164 13.6287 18.0038 13.6287ZM18.0038 20.8209C16.4448 20.8209 15.1702 19.5501 15.1702 17.9872C15.1702 16.4244 16.441 15.1536 18.0038 15.1536C19.5667 15.1536 20.8375 16.4244 20.8375 17.9872C20.8375 19.5501 19.5629 20.8209 18.0038 20.8209ZM23.5573 13.4504C23.5573 14.0156 23.1021 14.467 22.5407 14.467C21.9755 14.467 21.5241 14.0118 21.5241 13.4504C21.5241 12.889 21.9793 12.4338 22.5407 12.4338C23.1021 12.4338 23.5573 12.889 23.5573 13.4504ZM26.444 14.4822C26.3795 13.1204 26.0685 11.9141 25.0708 10.9202C24.077 9.92638 22.8707 9.61533 21.5089 9.54705C20.1054 9.46739 15.8985 9.46739 14.495 9.54705C13.137 9.61154 11.9307 9.92259 10.9331 10.9164C9.93541 11.9103 9.62815 13.1166 9.55987 14.4784C9.48021 15.8819 9.48021 20.0887 9.55987 21.4923C9.62435 22.8541 9.93541 24.0604 10.9331 25.0542C11.9307 26.0481 13.1332 26.3591 14.495 26.4274C15.8985 26.5071 20.1054 26.5071 21.5089 26.4274C22.8707 26.3629 24.077 26.0519 25.0708 25.0542C26.0647 24.0604 26.3757 22.8541 26.444 21.4923C26.5237 20.0887 26.5237 15.8857 26.444 14.4822ZM24.6308 22.9982C24.3349 23.7417 23.7621 24.3145 23.0148 24.6142C21.8958 25.058 19.2405 24.9556 18.0038 24.9556C16.7672 24.9556 14.1081 25.0542 12.9928 24.6142C12.2493 24.3183 11.6766 23.7455 11.3769 22.9982C10.9331 21.8792 11.0355 19.2239 11.0355 17.9872C11.0355 16.7506 10.9368 14.0915 11.3769 12.9762C11.6728 12.2327 12.2456 11.6599 12.9928 11.3603C14.1119 10.9164 16.7672 11.0189 18.0038 11.0189C19.2405 11.0189 21.8996 10.9202 23.0148 11.3603C23.7583 11.6561 24.3311 12.2289 24.6308 12.9762C25.0746 14.0953 24.9722 16.7506 24.9722 17.9872C24.9722 19.2239 25.0746 21.883 24.6308 22.9982Z" fill="white"/>
</svg>
