<svg width="60" height="60" viewBox="0 0 60 60" fill="none" xmlns="http://www.w3.org/2000/svg">
<rect width="60" height="60" rx="3" fill="white"/>
<g clip-path="url(#clip0_7_68)">
<g clip-path="url(#clip1_7_68)">
<g clip-path="url(#clip2_7_68)">
<path d="M49.1667 19.05H38.0167V15.1167C38.0167 14.4537 37.7533 13.8178 37.2844 13.3489C36.8156 12.8801 36.1797 12.6167 35.5167 12.6167H24.4833C23.8203 12.6167 23.1844 12.8801 22.7156 13.3489C22.2467 13.8178 21.9833 14.4537 21.9833 15.1167V19.05H10.8333C10.6123 19.05 10.4004 19.1378 10.2441 19.2941C10.0878 19.4504 10 19.6624 10 19.8834V29.8834C10.0004 30.6937 10.2371 31.4864 10.6812 32.1643C11.1252 32.8422 11.7573 33.3759 12.5 33.7V46.55C12.5 46.771 12.5878 46.983 12.7441 47.1393C12.9004 47.2956 13.1123 47.3834 13.3333 47.3834H46.6667C46.8877 47.3834 47.0996 47.2956 47.2559 47.1393C47.4122 46.983 47.5 46.771 47.5 46.55V33.7C48.2427 33.3759 48.8748 32.8422 49.3188 32.1643C49.7629 31.4864 49.9996 30.6937 50 29.8834V19.8834C50 19.6624 49.9122 19.4504 49.7559 19.2941C49.5996 19.1378 49.3877 19.05 49.1667 19.05ZM23.65 15.1167C23.65 14.8957 23.7378 14.6837 23.8941 14.5274C24.0504 14.3712 24.2623 14.2834 24.4833 14.2834H35.5333C35.7543 14.2834 35.9663 14.3712 36.1226 14.5274C36.2789 14.6837 36.3667 14.8957 36.3667 15.1167V19.05H23.65V15.1167ZM45.8333 45.7167H14.1667V34.05H18.3333V35.05C18.3245 35.3811 18.3815 35.7107 18.5011 36.0195C18.6206 36.3284 18.8004 36.6104 19.0299 36.8492C19.2594 37.088 19.5341 37.2788 19.8379 37.4106C20.1418 37.5423 20.4688 37.6124 20.8 37.6167H22.4667C22.8035 37.6213 23.1377 37.5578 23.4493 37.43C23.761 37.3023 24.0436 37.1128 24.2802 36.8731C24.5168 36.6334 24.7025 36.3483 24.8262 36.0351C24.9499 35.7218 25.009 35.3867 25 35.05V34.05H35V35.05C35 35.7131 35.2634 36.349 35.7322 36.8178C36.2011 37.2866 36.837 37.55 37.5 37.55H39.1667C39.8297 37.55 40.4656 37.2866 40.9344 36.8178C41.4033 36.349 41.6667 35.7131 41.6667 35.05V34.05H45.8333V45.7167ZM20 33.2167V31.8667H23.3333V35.0334C23.3333 35.2544 23.2455 35.4663 23.0893 35.6226C22.933 35.7789 22.721 35.8667 22.5 35.8667H20.8333C20.6123 35.8667 20.4004 35.7789 20.2441 35.6226C20.0878 35.4663 20 35.2544 20 35.0334V33.2167ZM40 35.05C40 35.271 39.9122 35.483 39.7559 35.6393C39.5996 35.7956 39.3877 35.8834 39.1667 35.8834H37.5C37.279 35.8834 37.067 35.7956 36.9107 35.6393C36.7545 35.483 36.6667 35.271 36.6667 35.05V31.8834H40V35.05ZM48.3333 29.8834C48.3333 30.5464 48.0699 31.1823 47.6011 31.6511C47.1323 32.12 46.4964 32.3834 45.8333 32.3834H41.6667V31.0334C41.6667 30.8124 41.5789 30.6004 41.4226 30.4441C41.2663 30.2878 41.0543 30.2 40.8333 30.2H35.8333C35.6123 30.2 35.4004 30.2878 35.2441 30.4441C35.0878 30.6004 35 30.8124 35 31.0334V32.3834H25V31.0334C25 30.8124 24.9122 30.6004 24.7559 30.4441C24.5996 30.2878 24.3877 30.2 24.1667 30.2H19.1667C18.9457 30.2 18.7337 30.2878 18.5774 30.4441C18.4211 30.6004 18.3333 30.8124 18.3333 31.0334V32.3834H14.1667C13.5036 32.3834 12.8677 32.12 12.3989 31.6511C11.9301 31.1823 11.6667 30.5464 11.6667 29.8834V20.7167H48.3333V29.8834Z" fill="black"/>
</g>
</g>
</g>
<defs>
<clipPath id="clip0_7_68">
<rect width="40" height="40" fill="white" transform="translate(10 10)"/>
</clipPath>
<clipPath id="clip1_7_68">
<rect width="40" height="40" fill="white" transform="translate(10 10)"/>
</clipPath>
<clipPath id="clip2_7_68">
<rect width="40" height="34.7667" fill="white" transform="translate(10 12.6167)"/>
</clipPath>
</defs>
</svg>
