<svg width="1300" height="580" viewBox="0 0 1300 580" fill="none" xmlns="http://www.w3.org/2000/svg">
<g clip-path="url(#clip0_7_116)">
<path d="M826.9 1.5002H827.4V1.00019H826.9V1.5002ZM826.9 54.0002V54.5002H827.4V54.0002H826.9ZM812.2 54.0002H811.7V54.5002H812.2V54.0002ZM812.2 13.2752H812.7V12.7752H812.2V13.2752ZM792.25 13.2752V12.7752H791.75V13.2752H792.25ZM792.25 54.0002V54.5002H792.75V54.0002H792.25ZM777.625 54.0002H777.125V54.5002H777.625V54.0002ZM777.625 1.5002V1.00019H777.125V1.5002H777.625ZM826.4 1.5002V54.0002H827.4V1.5002H826.4ZM826.9 53.5002H812.2V54.5002H826.9V53.5002ZM812.7 54.0002V13.2752H811.7V54.0002H812.7ZM812.2 12.7752H792.25V13.7752H812.2V12.7752ZM791.75 13.2752V54.0002H792.75V13.2752H791.75ZM792.25 53.5002H777.625V54.5002H792.25V53.5002ZM778.125 54.0002V1.5002H777.125V54.0002H778.125ZM777.625 2.0002H826.9V1.00019H777.625V2.0002ZM847.423 51.5252L847.188 51.9662L847.19 51.9673L847.423 51.5252ZM836.998 41.7752L836.57 42.0332L836.572 42.037L836.998 41.7752ZM836.998 13.7252L836.572 13.4634L836.57 13.4672L836.998 13.7252ZM847.423 3.9752L847.19 3.53306L847.188 3.53416L847.423 3.9752ZM877.348 3.9752L877.112 4.41624L877.115 4.41733L877.348 3.9752ZM887.773 13.7252L887.345 13.9832L887.347 13.987L887.773 13.7252ZM887.773 41.7752L887.347 41.5134L887.345 41.5172L887.773 41.7752ZM877.348 51.5252L877.115 51.0831L877.112 51.0842L877.348 51.5252ZM874.723 35.6252L875.16 35.868L875.162 35.864L874.723 35.6252ZM874.723 19.9502L874.284 20.189L874.286 20.193L874.723 19.9502ZM850.123 19.9502L850.56 20.193L850.562 20.189L850.123 19.9502ZM850.123 35.6252L849.684 35.864L849.686 35.868L850.123 35.6252ZM862.423 54.5502C856.946 54.5502 852.027 53.3913 847.657 51.0831L847.19 51.9673C851.719 54.3591 856.8 55.5502 862.423 55.5502V54.5502ZM847.659 51.0842C843.335 48.7749 839.926 45.586 837.424 41.5134L836.572 42.037C839.17 46.2644 842.711 49.5755 847.188 51.9662L847.659 51.0842ZM837.426 41.5172C834.977 37.4508 833.748 32.8662 833.748 27.7502H832.748C832.748 33.0342 834.019 37.7996 836.57 42.0332L837.426 41.5172ZM833.748 27.7502C833.748 22.6342 834.977 18.0496 837.426 13.9832L836.57 13.4672C834.019 17.7008 832.748 22.4662 832.748 27.7502H833.748ZM837.424 13.987C839.926 9.91445 843.335 6.72549 847.659 4.41623L847.188 3.53416C842.711 5.92491 839.17 9.23595 836.572 13.4634L837.424 13.987ZM847.657 4.41733C852.027 2.10913 856.946 0.950196 862.423 0.950196V-0.0498047C856.8 -0.0498047 851.719 1.14127 847.19 3.53306L847.657 4.41733ZM862.423 0.950196C867.9 0.950196 872.793 2.10916 877.112 4.41624L877.584 3.53416C873.103 1.14124 868.046 -0.0498047 862.423 -0.0498047V0.950196ZM877.115 4.41733C881.487 6.72655 884.894 9.91427 887.345 13.9832L888.201 13.4672C885.653 9.23613 882.109 5.92384 877.582 3.53306L877.115 4.41733ZM887.347 13.987C889.845 18.0529 891.098 22.6361 891.098 27.7502H892.098C892.098 22.4643 890.801 17.6975 888.199 13.4634L887.347 13.987ZM891.098 27.7502C891.098 32.8643 889.845 37.4475 887.347 41.5134L888.199 42.037C890.801 37.8029 892.098 33.0361 892.098 27.7502H891.098ZM887.345 41.5172C884.894 45.5861 881.487 48.7738 877.115 51.0831L877.582 51.9673C882.109 49.5766 885.653 46.2643 888.201 42.0332L887.345 41.5172ZM877.112 51.0842C872.793 53.3912 867.9 54.5502 862.423 54.5502V55.5502C868.046 55.5502 873.103 54.3592 877.584 51.9662L877.112 51.0842ZM862.423 43.2502C865.155 43.2502 867.643 42.6047 869.874 41.3075L869.372 40.4429C867.303 41.6457 864.991 42.2502 862.423 42.2502V43.2502ZM869.874 41.3075C872.105 40.0106 873.868 38.1939 875.16 35.868L874.286 35.3824C873.078 37.5565 871.441 39.2398 869.372 40.4429L869.874 41.3075ZM875.162 35.864C876.457 33.4818 877.098 30.7729 877.098 27.7502H876.098C876.098 30.6275 875.489 33.1686 874.284 35.3864L875.162 35.864ZM877.098 27.7502C877.098 24.7278 876.457 22.0419 875.16 19.7074L874.286 20.193C875.489 22.3585 876.098 24.8726 876.098 27.7502H877.098ZM875.162 19.7114C873.871 17.3354 872.108 15.4915 869.874 14.1929L869.372 15.0575C871.438 16.2589 873.075 17.965 874.284 20.189L875.162 19.7114ZM869.874 14.1929C867.643 12.8957 865.155 12.2502 862.423 12.2502V13.2502C864.991 13.2502 867.303 13.8547 869.372 15.0575L869.874 14.1929ZM862.423 12.2502C859.691 12.2502 857.203 12.8957 854.972 14.1929L855.474 15.0575C857.543 13.8547 859.855 13.2502 862.423 13.2502V12.2502ZM854.972 14.1929C852.738 15.4915 850.975 17.3354 849.684 19.7114L850.562 20.189C851.771 17.965 853.408 16.2589 855.474 15.0575L854.972 14.1929ZM849.686 19.7074C848.389 22.0419 847.748 24.7278 847.748 27.7502H848.748C848.748 24.8726 849.357 22.3585 850.56 20.193L849.686 19.7074ZM847.748 27.7502C847.748 30.7729 848.389 33.4818 849.684 35.864L850.562 35.3864C849.357 33.1686 848.748 30.6275 848.748 27.7502H847.748ZM849.686 35.868C850.978 38.1939 852.741 40.0106 854.972 41.3075L855.474 40.4429C853.405 39.2398 851.768 37.5565 850.56 35.3824L849.686 35.868ZM854.972 41.3075C857.203 42.6047 859.691 43.2502 862.423 43.2502V42.2502C859.855 42.2502 857.543 41.6457 855.474 40.4429L854.972 41.3075ZM942.464 1.5002H942.964V1.00019H942.464V1.5002ZM942.464 54.0002V54.5002H942.964V54.0002H942.464ZM927.839 54.0002H927.339V54.5002H927.839V54.0002ZM927.839 36.1502H928.339V35.4565L927.681 35.6759L927.839 36.1502ZM899.789 32.9252L899.45 33.2928L899.455 33.2973L899.789 32.9252ZM894.014 1.5002V1.00019H893.514V1.5002H894.014ZM908.639 1.5002H909.139V1.00019H908.639V1.5002ZM927.839 24.3002L928.049 24.7542L928.339 24.6201V24.3002H927.839ZM927.839 1.5002V1.00019H927.339V1.5002H927.839ZM941.964 1.5002V54.0002H942.964V1.5002H941.964ZM942.464 53.5002H927.839V54.5002H942.464V53.5002ZM928.339 54.0002V36.1502H927.339V54.0002H928.339ZM927.681 35.6759C923.67 37.013 919.999 37.6752 916.664 37.6752V38.6752C920.13 38.6752 923.909 37.9874 927.998 36.6245L927.681 35.6759ZM916.664 37.6752C909.388 37.6752 903.9 35.9428 900.123 32.5531L899.455 33.2973C903.478 36.9076 909.241 38.6752 916.664 38.6752V37.6752ZM900.128 32.5576C896.407 29.1264 894.514 24.1757 894.514 17.6252H893.514C893.514 24.3747 895.471 29.624 899.45 33.2928L900.128 32.5576ZM894.514 17.6252V1.5002H893.514V17.6252H894.514ZM894.014 2.0002H908.639V1.00019H894.014V2.0002ZM908.139 1.5002V15.9752H909.139V1.5002H908.139ZM908.139 15.9752C908.139 19.4245 908.983 22.1038 910.757 23.9185C912.533 25.7353 915.159 26.6002 918.539 26.6002V25.6002C915.319 25.6002 912.996 24.7776 911.472 23.2194C909.946 21.6591 909.139 19.2759 909.139 15.9752H908.139ZM918.539 26.6002C922.194 26.6002 925.369 25.9912 928.049 24.7542L927.63 23.8462C925.11 25.0092 922.085 25.6002 918.539 25.6002V26.6002ZM928.339 24.3002V1.5002H927.339V24.3002H928.339ZM927.839 2.0002H942.464V1.00019H927.839V2.0002ZM994.352 42.5252H994.852V42.0252H994.352V42.5252ZM994.352 54.0002V54.5002H994.852V54.0002H994.352ZM952.202 54.0002H951.702V54.5002H952.202V54.0002ZM952.202 1.5002V1.00019H951.702V1.5002H952.202ZM993.377 1.5002H993.877V1.00019H993.377V1.5002ZM993.377 12.9752V13.4752H993.877V12.9752H993.377ZM966.902 12.9752V12.4752H966.402V12.9752H966.902ZM966.902 21.8252H966.402V22.3252H966.902V21.8252ZM990.227 21.8252H990.727V21.3252H990.227V21.8252ZM990.227 32.9252V33.4252H990.727V32.9252H990.227ZM966.902 32.9252V32.4252H966.402V32.9252H966.902ZM966.902 42.5252H966.402V43.0252H966.902V42.5252ZM993.852 42.5252V54.0002H994.852V42.5252H993.852ZM994.352 53.5002H952.202V54.5002H994.352V53.5002ZM952.702 54.0002V1.5002H951.702V54.0002H952.702ZM952.202 2.0002H993.377V1.00019H952.202V2.0002ZM992.877 1.5002V12.9752H993.877V1.5002H992.877ZM993.377 12.4752H966.902V13.4752H993.377V12.4752ZM966.402 12.9752V21.8252H967.402V12.9752H966.402ZM966.902 22.3252H990.227V21.3252H966.902V22.3252ZM989.727 21.8252V32.9252H990.727V21.8252H989.727ZM990.227 32.4252H966.902V33.4252H990.227V32.4252ZM966.402 32.9252V42.5252H967.402V32.9252H966.402ZM966.902 43.0252H994.352V42.0252H966.902V43.0252ZM1048.64 54.0002L1048.14 54.0015L1048.14 54.5002H1048.64V54.0002ZM1048.56 26.1752L1049.06 26.1739L1049.06 24.3679L1048.13 25.9192L1048.56 26.1752ZM1035.06 48.8252V49.3252H1035.35L1035.49 49.0812L1035.06 48.8252ZM1028.46 48.8252L1028.04 49.0863L1028.18 49.3252H1028.46V48.8252ZM1014.96 26.7752L1015.39 26.5141L1014.46 25.001V26.7752H1014.96ZM1014.96 54.0002V54.5002H1015.46V54.0002H1014.96ZM1001.31 54.0002H1000.81V54.5002H1001.31V54.0002ZM1001.31 1.5002V1.00019H1000.81V1.5002H1001.31ZM1013.54 1.5002L1013.96 1.24016L1013.82 1.00019H1013.54V1.5002ZM1031.99 31.8002L1031.56 32.0602L1031.99 32.7703L1032.42 32.0556L1031.99 31.8002ZM1049.99 1.5002V1.00019H1049.7L1049.56 1.24483L1049.99 1.5002ZM1062.21 1.5002L1062.71 1.49877L1062.71 1.00019H1062.21V1.5002ZM1062.36 54.0002V54.5002H1062.86L1062.86 53.9988L1062.36 54.0002ZM1049.14 53.9989L1049.06 26.1739L1048.06 26.1765L1048.14 54.0015L1049.14 53.9989ZM1048.13 25.9192L1034.63 48.5692L1035.49 49.0812L1048.99 26.4312L1048.13 25.9192ZM1035.06 48.3252H1028.46V49.3252H1035.06V48.3252ZM1028.89 48.5641L1015.39 26.5141L1014.54 27.0363L1028.04 49.0863L1028.89 48.5641ZM1014.46 26.7752V54.0002H1015.46V26.7752H1014.46ZM1014.96 53.5002H1001.31V54.5002H1014.96V53.5002ZM1001.81 54.0002V1.5002H1000.81V54.0002H1001.81ZM1001.31 2.0002H1013.54V1.00019H1001.31V2.0002ZM1013.11 1.76024L1031.56 32.0602L1032.41 31.5402L1013.96 1.24016L1013.11 1.76024ZM1032.42 32.0556L1050.42 1.75556L1049.56 1.24483L1031.56 31.5448L1032.42 32.0556ZM1049.99 2.0002H1062.21V1.00019H1049.99V2.0002ZM1061.71 1.50163L1061.86 54.0016L1062.86 53.9988L1062.71 1.49877L1061.71 1.50163ZM1062.36 53.5002H1048.64V54.5002H1062.36V53.5002ZM1121.9 1.5002L1122.35 1.73642L1122.74 1.00019H1121.9V1.5002ZM1100.15 42.0752L1099.71 41.839L1099.71 41.8415L1100.15 42.0752ZM1091.68 51.9752L1091.4 51.5601L1091.4 51.5621L1091.68 51.9752ZM1071.5 53.4002L1071.03 53.247L1070.89 53.6935L1071.32 53.8654L1071.5 53.4002ZM1075.03 42.4502L1075.17 41.9703L1074.7 41.8336L1074.55 42.297L1075.03 42.4502ZM1084.1 42.3752L1083.86 41.9398L1083.85 41.9447L1084.1 42.3752ZM1087.25 39.3002L1087.67 39.581L1087.84 39.3298L1087.69 39.0627L1087.25 39.3002ZM1066.85 1.5002V1.00019H1066.02L1066.41 1.73766L1066.85 1.5002ZM1082.53 1.5002L1082.98 1.28301L1082.84 1.00019H1082.53V1.5002ZM1094.75 26.8502L1094.3 27.0674L1094.75 27.9845L1095.2 27.0738L1094.75 26.8502ZM1107.43 1.5002V1.00019H1107.12L1106.98 1.27659L1107.43 1.5002ZM1121.46 1.26397L1099.71 41.839L1100.6 42.3114L1122.35 1.73642L1121.46 1.26397ZM1099.71 41.8415C1097.44 46.1343 1094.67 49.3652 1091.4 51.5601L1091.96 52.3903C1095.39 50.0852 1098.27 46.7161 1100.6 42.3089L1099.71 41.8415ZM1091.4 51.5621C1088.18 53.7562 1084.65 54.8502 1080.8 54.8502V55.8502C1084.86 55.8502 1088.58 54.6942 1091.96 52.3883L1091.4 51.5621ZM1080.8 54.8502C1077.98 54.8502 1074.94 54.217 1071.69 52.935L1071.32 53.8654C1074.67 55.1834 1077.83 55.8502 1080.8 55.8502V54.8502ZM1071.98 53.5534L1075.51 42.6034L1074.55 42.297L1071.03 53.247L1071.98 53.5534ZM1074.89 42.9301C1076.96 43.5377 1078.76 43.8502 1080.28 43.8502V42.8502C1078.89 42.8502 1077.19 42.5627 1075.17 41.9703L1074.89 42.9301ZM1080.28 43.8502C1081.81 43.8502 1083.17 43.5071 1084.36 42.8057L1083.85 41.9447C1082.84 42.5433 1081.65 42.8502 1080.28 42.8502V43.8502ZM1084.35 42.8105C1085.58 42.1135 1086.69 41.0274 1087.67 39.581L1086.84 39.0194C1085.92 40.373 1084.92 41.3368 1083.86 41.9398L1084.35 42.8105ZM1087.69 39.0627L1067.29 1.26273L1066.41 1.73766L1086.81 39.5377L1087.69 39.0627ZM1066.85 2.0002H1082.53V1.00019H1066.85V2.0002ZM1082.08 1.71738L1094.3 27.0674L1095.2 26.633L1082.98 1.28301L1082.08 1.71738ZM1095.2 27.0738L1107.88 1.7238L1106.98 1.27659L1094.31 26.6266L1095.2 27.0738ZM1107.43 2.0002H1121.9V1.00019H1107.43V2.0002ZM1193.92 54.0002L1193.42 54.0015L1193.42 54.5002H1193.92V54.0002ZM1193.84 26.1752L1194.34 26.1739L1194.34 24.3679L1193.41 25.9192L1193.84 26.1752ZM1180.34 48.8252V49.3252H1180.63L1180.77 49.0812L1180.34 48.8252ZM1173.74 48.8252L1173.32 49.0863L1173.46 49.3252H1173.74V48.8252ZM1160.24 26.7752L1160.67 26.5141L1159.74 25.001V26.7752H1160.24ZM1160.24 54.0002V54.5002H1160.74V54.0002H1160.24ZM1146.59 54.0002H1146.09V54.5002H1146.59V54.0002ZM1146.59 1.5002V1.00019H1146.09V1.5002H1146.59ZM1158.82 1.5002L1159.24 1.24016L1159.1 1.00019H1158.82V1.5002ZM1177.27 31.8002L1176.84 32.0602L1177.27 32.7703L1177.7 32.0556L1177.27 31.8002ZM1195.27 1.5002V1.00019H1194.98L1194.84 1.24483L1195.27 1.5002ZM1207.49 1.5002L1207.99 1.49877L1207.99 1.00019H1207.49V1.5002ZM1207.64 54.0002V54.5002H1208.14L1208.14 53.9988L1207.64 54.0002ZM1194.42 53.9989L1194.34 26.1739L1193.34 26.1765L1193.42 54.0015L1194.42 53.9989ZM1193.41 25.9192L1179.91 48.5692L1180.77 49.0812L1194.27 26.4312L1193.41 25.9192ZM1180.34 48.3252H1173.74V49.3252H1180.34V48.3252ZM1174.17 48.5641L1160.67 26.5141L1159.82 27.0363L1173.32 49.0863L1174.17 48.5641ZM1159.74 26.7752V54.0002H1160.74V26.7752H1159.74ZM1160.24 53.5002H1146.59V54.5002H1160.24V53.5002ZM1147.09 54.0002V1.5002H1146.09V54.0002H1147.09ZM1146.59 2.0002H1158.82V1.00019H1146.59V2.0002ZM1158.39 1.76024L1176.84 32.0602L1177.7 31.5402L1159.24 1.24016L1158.39 1.76024ZM1177.7 32.0556L1195.7 1.75556L1194.84 1.24483L1176.84 31.5448L1177.7 32.0556ZM1195.27 2.0002H1207.49V1.00019H1195.27V2.0002ZM1206.99 1.50163L1207.14 54.0016L1208.14 53.9988L1207.99 1.49877L1206.99 1.50163ZM1207.64 53.5002H1193.92V54.5002H1207.64V53.5002ZM1259.01 22.5752L1258.69 22.9602L1258.69 22.9629L1259.01 22.5752ZM1217.31 54.0002H1216.81V54.5002H1217.31V54.0002ZM1217.31 1.5002V1.00019H1216.81V1.5002H1217.31ZM1231.93 1.5002H1232.43V1.00019H1231.93V1.5002ZM1231.93 18.2252H1231.43V18.7252H1231.93V18.2252ZM1247.08 41.3252L1246.75 40.9535L1246.74 40.9593L1247.08 41.3252ZM1231.93 28.8002V28.3002H1231.43V28.8002H1231.93ZM1231.93 43.3502H1231.43V43.8502H1231.93V43.3502ZM1270.04 1.5002V1.00019H1269.54V1.5002H1270.04ZM1284.66 1.5002H1285.16V1.00019H1284.66V1.5002ZM1284.66 54.0002V54.5002H1285.16V54.0002H1284.66ZM1270.04 54.0002H1269.54V54.5002H1270.04V54.0002ZM1244.08 18.7252C1250.47 18.7252 1255.31 20.1603 1258.69 22.9602L1259.33 22.1902C1255.71 19.1901 1250.6 17.7252 1244.08 17.7252V18.7252ZM1258.69 22.9629C1262.05 25.6946 1263.76 29.7842 1263.76 35.3252H1264.76C1264.76 29.5662 1262.97 25.1558 1259.33 22.1875L1258.69 22.9629ZM1263.76 35.3252C1263.76 41.2585 1261.85 45.7278 1258.09 48.8137L1258.73 49.5867C1262.77 46.2726 1264.76 41.4919 1264.76 35.3252H1263.76ZM1258.09 48.8137C1254.31 51.9168 1249.01 53.5002 1242.14 53.5002V54.5002C1249.16 54.5002 1254.71 52.8836 1258.73 49.5867L1258.09 48.8137ZM1242.14 53.5002H1217.31V54.5002H1242.14V53.5002ZM1217.81 54.0002V1.5002H1216.81V54.0002H1217.81ZM1217.31 2.0002H1231.93V1.00019H1217.31V2.0002ZM1231.43 1.5002V18.2252H1232.43V1.5002H1231.43ZM1231.93 18.7252H1244.08V17.7252H1231.93V18.7252ZM1241.16 43.8502C1243.75 43.8502 1245.86 43.1482 1247.42 41.6911L1246.74 40.9593C1245.41 42.2022 1243.57 42.8502 1241.16 42.8502V43.8502ZM1247.42 41.6968C1249.05 40.232 1249.83 38.184 1249.83 35.6252H1248.83C1248.83 37.9664 1248.12 39.7183 1246.75 40.9535L1247.42 41.6968ZM1249.83 35.6252C1249.83 33.247 1249.12 31.3807 1247.61 30.1226C1246.12 28.879 1243.94 28.3002 1241.16 28.3002V29.3002C1243.83 29.3002 1245.74 29.8589 1246.97 30.8903C1248.19 31.9072 1248.83 33.4534 1248.83 35.6252H1249.83ZM1241.16 28.3002H1231.93V29.3002H1241.16V28.3002ZM1231.43 28.8002V43.3502H1232.43V28.8002H1231.43ZM1231.93 43.8502H1241.16V42.8502H1231.93V43.8502ZM1270.04 2.0002H1284.66V1.00019H1270.04V2.0002ZM1284.16 1.5002V54.0002H1285.16V1.5002H1284.16ZM1284.66 53.5002H1270.04V54.5002H1284.66V53.5002ZM1270.54 54.0002V1.5002H1269.54V54.0002H1270.54Z" fill="#CBCBCB"/>
</g>
<defs>
<clipPath id="clip0_7_116">
<rect width="508" height="56" fill="white" transform="translate(777)"/>
</clipPath>
</defs>
</svg>
